<svg id="Ebene_1" xmlns="http://www.w3.org/2000/svg" viewBox="0 0 27 20"><style>.st0{opacity:0.6;enable-background:new ;} .st1{fill:#d4a346;} .st2{opacity:0.3;fill:#d4a346;} .st3{fill:#D4A446;}</style><path class="st0 st1" d="M17.1 0l-2.9 2-4.7 3.2-6.6 4.6-2.8 2 9.8 6.8 2.8-1.9 4.8-3.3L24 8.8l2.8-2L17.1 0zm6 8.2l-.9.6.8.5-9.6 6.7-.8-.5-.8.5-2 1.3-8-5.6 2-1.4.9-.6-.8-.4 9.5-6.6.8.5.8-.6 2.1-1.4 8 5.6-2 1.4z"/><path class="st2" d="M23.9 9.3l-10.5 7.3L3 9.3l10.4-7.2 10.5 7.2z"/><path class="st3" d="M24 8.8l-.9-.6L15 2.6l-.8-.6-.8-.5L2.1 9.3l.7.5.9.6 8 5.6.9.6.8.5 11.4-7.9-.8-.4zm-19.4 1l-.7-.5 9.5-6.6.8.5 8.1 5.6.7.5-9.6 6.7-.8-.5-8-5.7z"/></svg>
