<svg width="69" height="43" viewBox="347 182 69 43" xmlns="http://www.w3.org/2000/svg"><path d="M370.7 203.6c2.3 2.5 3.4 5.5 3.4 9.1 0 2.6-.8 5.2-2.9 7.3-4.3 4.3-9.3 4.4-9.3 4.4-3.3 0-6.4-1.5-9.3-4.4-.7-.7-1.3-1.6-2-2.9-2.6-5.2-3.3-10.5-2-15.9 1.4-5.5 4.3-9.9 8.9-13.5 7.5-5.9 15.2-7.2 23-3.9-4.2 0-8.8 1.6-13.7 4.9-4.2 3.6-6.9 7.7-7.8 12.2.2-.2 1.2-1 2.9-1 3.6 0 6.5 1.2 8.8 3.7zm35 0c2.3 2.5 3.4 5.5 3.4 9.1 0 2.6-.8 5.2-2.9 7.3-4.3 4.3-9.3 4.4-9.3 4.4-3.3 0-6.4-1.5-9.3-4.4-.7-.7-1.3-1.6-2-2.9-2.6-5.2-3.3-10.5-2-15.9 1.3-5.4 4.2-9.9 8.8-13.5 7.5-5.9 15.2-7.2 23-3.9-4.2 0-8.8 1.6-13.7 4.9-4.2 3.6-6.9 7.7-7.8 12.2.2-.2 1.2-1 2.9-1 3.7 0 6.6 1.2 8.9 3.7z" fill="#D4A446" fill-rule="evenodd"/></svg>