<?xml version="1.0" encoding="utf-8"?>
<!-- Generator: Adobe Illustrator 16.0.0, SVG Export Plug-In . SVG Version: 6.00 Build 0)  -->
<!DOCTYPE svg PUBLIC "-//W3C//DTD SVG 1.1//EN" "http://www.w3.org/Graphics/SVG/1.1/DTD/svg11.dtd">
<svg version="1.1" id="Calque_2" xmlns="http://www.w3.org/2000/svg" xmlns:xlink="http://www.w3.org/1999/xlink" x="0px" y="0px"
	 width="400.922px" height="400.922px" viewBox="0 0 400.922 400.922" enable-background="new 0 0 400.922 400.922"
	 xml:space="preserve">
<g opacity="0.2">
	<path d="M365.377,205.423l9.92-1.515V199.9l-9.844-1.51c-0.041-3.426,0.159-6.826-0.088-10.201l10.541-2.605l-0.328-3.986
		l-10.553-0.394c-0.398-3.411-0.881-6.781-1.48-10.127l9.972-3.651l-0.826-3.921l-10.51,0.712c-0.751-3.35-1.603-6.664-2.558-9.937
		l9.463-4.643l-1.236-3.813l-10.323,1.798c-1.103-3.258-2.29-6.477-3.582-9.641l8.868-5.571l-1.631-3.659l-10.029,2.85
		c-1.438-3.127-2.949-6.219-4.574-9.239l8.193-6.427l-2.007-3.473l-9.632,3.868c-1.762-2.964-3.605-5.87-5.543-8.707l7.459-7.237
		l-2.356-3.239l-9.127,4.825c-2.06-2.766-4.237-5.434-6.464-8.061l6.656-7.967l-2.682-2.979l-8.565,5.748
		c-2.343-2.532-4.772-4.975-7.269-7.358l5.775-8.597l-2.979-2.683l-7.902,6.598c-2.596-2.275-5.258-4.473-7.991-6.584l4.823-9.111
		l-3.242-2.358l-7.141,7.361c-2.82-1.997-5.691-3.926-8.644-5.747l3.82-9.503l-3.47-2.006l-6.297,8.021
		c-3.021-1.692-6.08-3.325-9.211-4.828l2.787-9.792l-3.662-1.632l-5.396,8.591c-3.178-1.364-6.412-2.626-9.691-3.794l1.75-10.028
		l-3.812-1.24l-4.454,9.077c-3.305-1.024-6.664-1.909-10.053-2.724l0.691-10.161l-3.923-0.833l-3.489,9.507
		c-3.385-0.666-6.813-1.203-10.27-1.655l-0.377-10.196l-3.985-0.42l-2.483,9.846c-3.43-0.306-6.896-0.571-10.385-0.661
		l-1.443-10.201h-4.004l-1.438,10.149c-3.492,0.051-6.952,0.255-10.388,0.519l-2.492-9.886l-3.982,0.428l-0.379,10.162
		c-3.462,0.41-6.892,0.936-10.285,1.56l-3.51-9.577l-3.917,0.837l0.686,10.128c-3.399,0.774-6.757,1.647-10.074,2.628l-4.483-9.149
		l-3.808,1.237l1.741,10.009c-3.291,1.126-6.55,2.331-9.743,3.658l-5.418-8.628l-3.659,1.628l2.783,9.789
		c-3.15,1.466-6.261,2.999-9.301,4.657l-6.302-8.029l-3.467,2.002l3.799,9.458c-2.974,1.785-5.877,3.671-8.725,5.634l-7.153-7.371
		l-3.237,2.353l4.781,9.047c-2.761,2.08-5.434,4.269-8.055,6.517l-7.935-6.628l-2.974,2.681l5.741,8.551
		c-2.524,2.35-4.966,4.79-7.337,7.292l-8.614-5.783l-2.683,2.975l6.635,7.945c-2.259,2.595-4.448,5.252-6.544,7.988l-9.19-4.857
		l-2.353,3.239l7.446,7.224c-1.975,2.814-3.889,5.673-5.688,8.613l-9.654-3.871l-2.002,3.466l8.172,6.416
		c-1.665,3-3.249,6.051-4.729,9.162l-10.043-2.855l-1.628,3.66l8.806,5.53c-1.34,3.15-2.55,6.365-3.697,9.611l-10.343-1.796
		l-1.237,3.809l9.393,4.606c-0.992,3.261-1.863,6.577-2.658,9.924L30.9,161.549l-0.834,3.915l9.9,3.632
		c-0.643,3.333-1.169,6.709-1.606,10.114l-10.639,0.396l-0.42,3.98l10.306,2.596c-0.286,3.373-1.038,6.771-1.126,10.197
		l-11.184,1.515v4.006l11.16,1.516c0.061,3.419,0.516,6.811,0.786,10.175l-10.293,2.63l0.489,3.979l10.759,0.399
		c0.414,3.389,0.947,6.742,1.564,10.063l-10.122,3.712l0.839,3.918l10.741-0.726c0.765,3.314,1.62,6.599,2.583,9.834l-9.714,4.767
		l1.238,3.806l10.645-1.849c1.106,3.206,2.286,6.381,3.585,9.496l-9.188,5.772l1.628,3.66l10.435-2.969
		c1.434,3.068,2.936,6.098,4.554,9.059l-8.574,6.726l2.002,3.473l10.102-4.057c1.744,2.892,3.589,5.715,5.502,8.485l-7.886,7.646
		l2.354,3.241l9.683-5.116c2.026,2.684,4.156,5.285,6.346,7.838l-7.088,8.482l2.679,2.979l9.15-6.145
		c2.29,2.453,4.661,4.829,7.097,7.14l-6.184,9.21l2.977,2.685l8.493-7.095c2.526,2.198,5.114,4.327,7.774,6.371l-5.195,9.821
		l3.237,2.355l7.72-7.955c2.74,1.924,5.524,3.783,8.385,5.54l-4.138,10.309l3.467,2.004l6.845-8.718
		c2.922,1.623,5.887,3.181,8.918,4.628l-3.038,10.688l3.657,1.63l5.89-9.376c3.072,1.31,6.2,2.507,9.367,3.628l-1.912,10.98
		l3.81,1.24l4.885-9.963c3.188,0.975,6.423,1.831,9.688,2.616l-0.754,11.154l3.916,0.835l3.832-10.459
		c3.264,0.636,6.564,1.155,9.893,1.593l0.417,11.207l3.982,0.422l2.648-10.845c3.329,0.293,6.688,0.758,10.069,0.85l1.588,11.407
		h4.002l1.63-11.355c3.342-0.052,6.657-0.353,9.946-0.603l2.744,10.825l3.982-0.458l0.415-11.179
		c3.333-0.396,6.634-0.907,9.901-1.504l3.856,10.515l3.917-0.836l-0.753-11.12c3.272-0.743,6.511-1.58,9.706-2.516l4.919,10.022
		l3.808-1.231l-1.906-10.962c3.177-1.079,6.316-2.243,9.402-3.511l5.924,9.43l3.658-1.627l-3.037-10.675
		c3.049-1.412,6.06-2.885,8.998-4.473l6.856,8.734l3.467-2.003l-4.122-10.277c2.881-1.719,5.707-3.521,8.471-5.41l7.73,7.97
		l3.24-2.354l-5.158-9.755c2.688-2.017,5.287-4.134,7.842-6.302l8.523,7.116l2.975-2.682l-6.15-9.162
		c2.463-2.28,4.843-4.645,7.16-7.07l9.197,6.175l2.682-2.979l-7.059-8.453c2.215-2.522,4.354-5.114,6.41-7.774l9.748,5.155
		l2.355-3.242l-7.867-7.634c1.943-2.744,3.82-5.541,5.597-8.406l10.165,4.078l2-3.465l-8.566-6.73
		c1.653-2.939,3.246-5.915,4.717-8.966l10.453,2.973l1.629-3.66l-9.16-5.752c1.338-3.104,2.58-6.252,3.727-9.444l10.667,1.856
		l1.239-3.812l-9.645-4.731c1.004-3.228,1.871-6.51,2.68-9.815l10.775,0.729l0.832-3.918l-10.068-3.692
		c0.656-3.313,1.19-6.668,1.646-10.047l10.768-0.398l0.418-3.984l-10.381-2.617C365.804,212.236,365.274,208.841,365.377,205.423z
		 M347.54,158.21l-52.133,15.255c-9.438-32.288-35.02-57.685-67.422-66.851l15.211-51.986
		C293.351,68.867,332.938,108.209,347.54,158.21z M201.219,234.762c-18.622,0-33.72-15.099-33.72-33.723
		c0-18.622,15.098-33.718,33.72-33.718c18.623,0,33.72,15.096,33.72,33.718C234.938,219.664,219.842,234.762,201.219,234.762z
		 M180.812,134.768c-22.35,6.874-39.865,24.747-46.271,47.297l-14.937-4.37c7.891-27.63,29.408-49.504,56.837-57.863
		L180.812,134.768z M134.678,220.496c6.53,22.37,24.018,40.063,46.274,46.855l-4.371,14.938
		c-27.336-8.279-48.825-29.973-56.84-57.423L134.678,220.496z M219.752,267.843c22.906-6.342,41.045-24.135,47.863-46.841
		l14.936,4.37c-8.301,27.786-30.442,49.581-58.43,57.407L219.752,267.843z M267.752,181.558
		c-6.691-22.888-24.859-40.861-47.86-47.282l4.37-14.937c28.08,7.906,50.25,29.881,58.426,57.848L267.752,181.558z M157.571,55.345
		l15.152,51.781c-31.75,9.621-56.693,34.895-65.845,66.844L55.43,158.915C69.632,109.385,108.329,70.217,157.571,55.345z
		 M55.65,243.619l51.37-15.031c9.276,31.771,34.186,56.87,65.842,66.412l-15.074,51.517
		C108.688,331.766,70.045,292.871,55.65,243.619z M242.979,347.227l-15.133-51.72c32.308-9.089,57.855-34.307,67.419-66.414
		l52.054,15.231C332.524,294.045,292.988,333.11,242.979,347.227z"/>
	<path d="M187.521,214.739c6.861,6.86,17.578,7.478,25.158,1.894l-27.051-27.05C180.044,197.162,180.66,207.878,187.521,214.739z"/>
	<path d="M188.323,186.621l27.316,27.316c6.811-7.605,6.582-19.286-0.725-26.592C207.608,180.038,195.929,179.81,188.323,186.621z"
		/>
</g>
</svg>
