<?xml version="1.0" encoding="utf-8"?>
<!-- Generator: Adobe Illustrator 16.0.0, SVG Export Plug-In . SVG Version: 6.00 Build 0)  -->
<!DOCTYPE svg PUBLIC "-//W3C//DTD SVG 1.1//EN" "http://www.w3.org/Graphics/SVG/1.1/DTD/svg11.dtd">
<svg version="1.1" id="Calque_2" xmlns="http://www.w3.org/2000/svg" xmlns:xlink="http://www.w3.org/1999/xlink" x="0px" y="0px"
	 width="400.922px" height="400.922px" viewBox="0 0 400.922 400.922" enable-background="new 0 0 400.922 400.922"
	 xml:space="preserve">
<g opacity="0.2">
	<path d="M200.602,138.062c-34.761,0-63.039,28.279-63.039,63.04c0,34.76,28.278,63.039,63.039,63.039
		c34.76,0,63.038-28.279,63.038-63.039C263.64,166.341,235.362,138.062,200.602,138.062z"/>
	<path d="M200.602,46.985c-84.979,0-154.116,69.136-154.116,154.115c0,84.98,69.137,154.116,154.116,154.116
		c84.979,0,154.115-69.136,154.115-154.116C354.717,116.121,285.581,46.985,200.602,46.985z M200.602,308.799
		c-3.372,0-6.697-0.175-9.989-0.479l2.577-29.588c2.44,0.229,4.91,0.131,7.412,0.131c2.245,0,4.462,0.113,6.66-0.074l2.787,29.573
		C206.932,308.632,203.788,308.799,200.602,308.799z M200.602,269.014c-37.448,0-67.913-30.466-67.913-67.912
		c0-37.448,30.465-67.914,67.913-67.914c37.445,0,67.912,30.466,67.912,67.914C268.514,238.548,238.047,269.014,200.602,269.014z"/>
	<path d="M380.072,203.975l10.851-0.769v-5.765l-10.864-0.769c-0.083-3.856-0.288-7.688-0.614-11.488l10.723-1.902l-0.603-5.733
		l-10.892,0.372c-0.485-3.821-1.102-7.606-1.826-11.355l10.484-3.018l-1.199-5.639l-10.813,1.511
		c-0.885-3.742-1.895-7.439-3.011-11.093l10.142-4.109l-1.781-5.482l-10.644,2.644c-1.271-3.621-2.646-7.196-4.142-10.712
		l9.688-5.164l-2.345-5.266l-10.354,3.758c-1.641-3.461-3.391-6.863-5.242-10.203l9.146-6.183l-2.882-4.992l-9.938,4.836
		c-1.99-3.266-4.088-6.461-6.276-9.59l8.479-7.13l-3.389-4.664l-9.417,5.873c-2.313-3.039-4.717-6.009-7.218-8.894l7.699-7.989
		l-3.856-4.284l-8.763,6.834c-2.614-2.781-5.318-5.477-8.105-8.088l6.831-8.762l-4.282-3.857l-7.996,7.707
		c-2.887-2.494-5.857-4.894-8.902-7.205l5.869-9.415l-4.664-3.388l-7.139,8.494c-3.131-2.18-6.328-4.27-9.603-6.252l4.841-9.952
		l-4.99-2.881l-6.199,9.172c-3.338-1.839-6.746-3.573-10.213-5.203l3.771-10.395l-5.265-2.343l-5.195,9.75
		c-3.512-1.477-7.086-2.837-10.711-4.094l2.662-10.725l-5.48-1.78l-4.15,10.247c-3.644-1.098-7.336-2.087-11.078-2.957l1.527-10.946
		l-5.637-1.198l-3.063,10.639c-3.732-0.708-7.504-1.313-11.321-1.789l0.374-11.054l-5.729-0.603l-1.936,10.912
		c-0.663-0.055-1.323-0.121-1.988-0.169c-3.167-0.23-6.32-0.373-9.46-0.437L203.204,10h-5.767l-0.782,11.046
		c-3.842,0.078-7.66,0.274-11.447,0.595l-1.929-10.884l-5.734,0.603l0.376,11.047c-3.81,0.48-7.584,1.085-11.322,1.804
		l-3.055-10.619l-5.64,1.2l1.527,10.938c-3.734,0.877-7.422,1.882-11.069,2.991l-4.15-10.247l-5.483,1.782l2.667,10.739
		c-3.616,1.264-7.186,2.633-10.697,4.119l-5.202-9.764l-5.268,2.346l3.783,10.421c-3.459,1.634-6.86,3.373-10.199,5.218l-6.21-9.19
		l-4.993,2.883l4.854,9.976c-3.267,1.983-6.462,4.077-9.592,6.259l-7.145-8.5l-4.664,3.389l5.878,9.427
		c-3.042,2.31-6.017,4.707-8.907,7.203l-7.981-7.696l-4.284,3.858l6.823,8.75c-2.787,2.611-5.49,5.312-8.108,8.097l-8.73-6.811
		l-3.857,4.284l7.671,7.959c-2.501,2.887-4.906,5.861-7.224,8.908l-9.359-5.838l-3.388,4.664l8.433,7.091
		c-2.188,3.132-4.29,6.333-6.28,9.61l-9.864-4.802l-2.882,4.993l9.085,6.142c-1.849,3.345-3.594,6.756-5.233,10.23l-10.277-3.732
		l-2.344,5.267l9.63,5.133c-1.486,3.52-2.854,7.104-4.119,10.739l-10.58-2.63l-1.78,5.483l10.097,4.091
		c-1.107,3.655-2.102,7.36-2.979,11.115l-10.774-1.506l-1.198,5.639l10.461,3.012c-0.716,3.747-1.326,7.534-1.807,11.366
		l-10.858-0.371l-0.603,5.733l10.709,1.899c-0.062,0.735-0.134,1.466-0.188,2.204c-0.226,3.111-0.37,6.209-0.435,9.293L10,197.72
		v5.764l10.819,0.769c0.074,3.862,0.266,7.699,0.585,11.506l-10.647,1.886l0.603,5.732l10.804-0.366
		c0.479,3.831,1.083,7.626,1.802,11.386l-10.374,2.982l1.198,5.639l10.68-1.49c0.88,3.757,1.89,7.467,3.003,11.135l-9.998,4.048
		l1.781,5.483l10.476-2.602c1.269,3.639,2.645,7.229,4.139,10.762l-9.519,5.07l2.345,5.268l10.157-3.686
		c1.642,3.48,3.391,6.904,5.247,10.264l-8.954,6.049l2.883,4.993l9.718-4.729c1.994,3.289,4.1,6.504,6.296,9.654l-8.279,6.957
		l3.389,4.665l9.181-5.726c2.324,3.063,4.735,6.057,7.248,8.962l-7.494,7.771l3.857,4.286l8.522-6.646
		c2.628,2.804,5.345,5.524,8.148,8.157l-6.634,8.503l4.284,3.859l7.753-7.475c2.905,2.518,5.898,4.937,8.964,7.268l-5.689,9.118
		l4.664,3.39l6.911-8.221c3.152,2.2,6.373,4.312,9.671,6.312l-4.683,9.618l4.992,2.883l5.991-8.863
		c3.365,1.858,6.797,3.61,10.293,5.257l-3.644,10.029l5.267,2.347l5.012-9.404c3.54,1.492,7.145,2.864,10.8,4.133l-2.57,10.338
		l5.483,1.782l4.001-9.875c3.674,1.11,7.398,2.108,11.173,2.986l-1.475,10.544l5.64,1.198l2.949-10.247
		c3.766,0.716,7.57,1.327,11.421,1.806l-0.365,10.644l5.734,0.604l1.864-10.509c0.671,0.056,1.339,0.123,2.012,0.172
		c3.191,0.23,6.368,0.374,9.53,0.437l0.752,10.625h5.767l0.752-10.635c3.876-0.079,7.728-0.279,11.546-0.604l1.858,10.482
		l5.735-0.603l-0.363-10.644c3.842-0.484,7.648-1.099,11.418-1.826l2.945,10.237l5.641-1.198l-1.475-10.551
		c3.766-0.887,7.483-1.901,11.16-3.022l4.006,9.891l5.483-1.782l-2.578-10.375c3.644-1.277,7.241-2.657,10.778-4.16l5.029,9.44
		l5.269-2.345l-3.661-10.085c3.482-1.649,6.907-3.408,10.268-5.271l6.02,8.907l4.993-2.883l-4.709-9.677
		c3.288-2,6.502-4.111,9.651-6.314l6.94,8.257l4.664-3.389l-5.718-9.168c3.058-2.328,6.046-4.746,8.949-7.264l7.777,7.498
		l4.284-3.857l-6.653-8.532c2.797-2.631,5.51-5.354,8.137-8.158l8.533,6.654l3.856-4.285l-7.508-7.787
		c2.509-2.905,4.924-5.895,7.245-8.961l9.175,5.721l3.388-4.665l-8.279-6.958c2.191-3.148,4.293-6.368,6.283-9.663l9.707,4.723
		l2.883-4.993l-8.949-6.047c1.849-3.359,3.589-6.787,5.226-10.276l10.147,3.684l2.345-5.267l-9.524-5.075
		c1.482-3.531,2.85-7.125,4.108-10.771l10.483,2.604l1.781-5.483l-10.025-4.062c1.102-3.662,2.095-7.373,2.965-11.135l10.718,1.496
		l1.198-5.639l-10.428-3c0.709-3.75,1.313-7.541,1.785-11.375l10.846,0.369l0.604-5.733l-10.715-1.899
		c0.05-0.599,0.109-1.195,0.152-1.796C379.87,210.424,380.012,207.191,380.072,203.975z M277.521,339.715
		c-76.658,42.498-173.592,14.7-216.084-61.956c-42.491-76.657-14.7-173.595,61.961-216.087
		c76.657-42.494,173.593-14.697,216.082,61.962C381.978,200.289,354.18,297.227,277.521,339.715z"/>
</g>
</svg>
