<svg version="1" xmlns="http://www.w3.org/2000/svg" width="2666.667" height="2666.667" viewBox="0 0 2000.000000 2000.000000"><path d="M963.9 54.4c-.2.2-6.9.6-14.9 1s-16.1.9-18 1.1c-1.9.2-7.3.6-12 1-4.7.3-9.8.8-11.5 1-1.6.2-5.7.7-9 1-3.3.3-7.6.8-9.5 1-1.9.2-5.5.6-8 .9-2.5.3-10.8 1.5-18.5 2.6-20 3-20.5 3.1-22.9 3.6-3.1.6-12.6 2.3-16.6 2.9-1.9.3-4.2.8-5 1-.8.2-2.8.7-4.5.9-4.9.9-30.5 6.6-37 8.2-3.3.9-6.8 1.8-7.8 2-1 .2-2.7.6-3.7.9-1 .3-2.7.8-3.9 1-2.6.5-14.2 3.6-16.1 4.2-.8.4-1.9.7-2.5.8-27.4 6.7-91.3 29.7-126 45.5-20 9-50.9 24.2-65.5 32.2-11.7 6.4-19.1 10.5-25.8 14.5-4.1 2.4-7.8 4.3-8.3 4.3-.5 0-.9.4-.9 1 0 .5-.4 1-1 1-.5 0-3.6 1.6-6.7 3.6-3.2 2-8 5.1-10.8 6.8-8.8 5.5-39.8 26.2-45.2 30.2-2.9 2.2-7.7 5.7-10.8 7.9-3.1 2.2-6.7 4.8-7.8 5.9-1.2 1-4.2 3.2-6.7 4.9-2.5 1.7-5 3.6-5.6 4.2-.6.5-2.6 2.1-4.4 3.5-3.7 2.8-9.2 7.2-10 8-.3.3-2.1 1.7-4.2 3.2-2 1.5-4.2 3.3-5 4-.7.7-4.2 3.8-7.8 6.8-24.1 20.4-43.8 38.9-67.5 63-14 14.2-17 17.5-29 31.1-6 6.8-11.2 12.6-11.5 12.9-1.3 1.3-15.6 18.7-24.2 29.5-30 37.7-60.9 84-84.2 126-3.7 6.6-7.1 12.7-7.6 13.5-2.6 4.3-25.6 51.4-30.8 63-19.1 43.2-40.2 102.7-49.1 138.6-.5 2.1-1.9 7.7-3.1 12.4-1.2 4.7-2.3 9.2-2.5 10-4 15.7-12.7 59.4-15 74.7-1.7 12-4.4 31.5-4.9 36.8-.6 5.3-1.4 11.7-2.1 17.7-.2 2-.7 7.8-1 13-.4 5.1-.9 10.9-1.1 12.8-2.6 26.5-2.6 109.1.1 136.5.2 2.2.6 7.4.9 11.5.4 4.1.9 9.5 1.1 12 .3 2.5.7 7 1 10 .8 8.7 4.1 34.3 4.9 38.7.2 1 .7 4 1.1 6.8 1.1 7.8 1.3 8.8 1.9 12.2.3 1.8.8 4.8 1.1 6.5 3.3 19 13.7 65.1 19.9 87.8 4.7 16.9 14.5 47.8 20.1 63 6.1 16.8 12.1 32.4 16 42 4.2 10.3 5.9 14.2 11.4 26.5 1.5 3.3 3.8 8.5 5.2 11.5 5.1 11.9 29.4 59 34.6 67.2 1.2 2.1 2.3 3.9 2.3 4.2 0 .2 2.9 5.3 6.5 11.2 16.6 28 35.6 56.8 55 83.1 6.8 9.2 9.7 13.1 17.8 23.3 9.9 12.4 34.3 41.4 39.7 47.1.8.8 4.1 4.4 7.4 8 9.7 10.7 39.7 40.8 50.7 50.9 5.6 5.2 11 10.2 11.9 11.1 5.2 4.9 32.5 28 45 37.9 32 25.5 74.1 54.5 108.2 74.5 25.6 15 59.5 32.7 87.3 45.5 9.2 4.2 39.2 17 39.9 17 .4 0 2.5.9 4.9 1.9 6.8 3.1 32.8 12.6 50.7 18.5 37.8 12.5 87.9 25.5 120 31 1.4.2 6.6 1.2 11.5 2.1 5 1 9.9 1.8 11 2 2.4.3 10 1.5 13.5 2 3.9.7 16 2.3 21.5 3 2.8.3 6.4.8 8 1 1.7.2 6.2.7 10 1 3.9.4 8 .8 9.3 1 1.3.2 6.5.7 11.5 1 5.1.4 10.8.9 12.7 1.1 25.7 2.6 109.7 2.5 137.5-.1 2.2-.2 7.6-.7 12-1 4.4-.4 9.4-.8 11-1 1.7-.2 5.9-.6 9.5-1 8.7-.8 35.1-4.3 42-5.5 3-.5 7.5-1.2 10-1.5 14-1.9 51.7-9.6 73.1-15 5.7-1.5 11.1-2.8 11.9-3 22.9-5.2 93.1-28.2 111.5-36.5 1.1-.5 6.1-2.6 11-4.6 16.2-6.5 31.6-13.6 57-26 21-10.4 34.7-17.6 46-24.2 3.3-1.9 8-4.6 10.5-6 2.5-1.3 8.6-4.9 13.5-8 105-64.1 194.8-145 266.3-240.2 7.3-9.6 13.6-18 14.1-18.6.5-.6 6.5-9.4 13.4-19.5 16.8-24.8 33-51 44.5-71.9 1.9-3.6 4.6-8.3 5.8-10.5 3-5.4 27.4-54 27.4-54.7 0-.4 1.8-4.4 3.9-9 20.1-42.7 43.6-111.5 55.6-162.8.2-.8 1.5-6.2 2.9-12 2.7-11.6 8.5-40.5 9.2-46 .3-1.9.9-5.5 1.4-8 .5-2.5 1.7-9.5 2.5-15.5.8-6.1 1.8-12.6 2-14.5.3-1.9.7-4.6 1-6 .2-1.4.7-5.7 1-9.5.3-3.9.8-8.4 1-10 .6-4 1.3-10.2 2.1-20.5.3-4.7.8-10.1 1-12 2.6-26.2 2.6-110.2 0-137.5-.3-2.2-.7-7.6-1-12-1.1-13.3-3.6-36.3-5.1-46.5-.2-1.4-.6-4.5-.9-7-.3-2.5-.8-5.6-1.1-7-.3-1.4-.7-4.3-1-6.5-.3-2.2-.7-5.2-1-6.8-1-5.3-1.5-8.3-3.1-17.2-4.1-23.6-13.6-64.5-19.9-86-1.5-5-3.3-11.3-4.1-14.2-2.7-10.3-16.4-50.2-23.2-67.8-11.6-30.1-19.9-48.8-35.3-80.2-9.8-19.8-12.9-25.7-25.7-48.3-13.5-23.9-38.1-62.2-54.5-85-4.3-6-15.1-20.4-15.7-21-.3-.3-2.5-3.2-5-6.5s-4.7-6.2-5-6.5c-.3-.3-4.3-5.2-9-11-4.6-5.8-9.9-12.1-11.6-14-1.7-1.9-6.8-7.8-11.4-13-26.8-30.8-62.6-66.1-96.5-95.1-17.7-15.1-51.5-41.6-59-46.3-1.6-1-3.2-2.1-3.5-2.5-2.8-3.4-61.2-41.2-81.5-52.6-60.4-34-116.5-58.8-177.2-78.3-12-3.8-25.2-7.9-29.3-9.1-4.1-1.2-8.8-2.6-10.5-3.1-3.3-1-37.7-9.6-44-11-11.3-2.4-49.6-9.9-53.5-10.4-2.5-.3-5.4-.8-6.5-1-1.1-.2-4-.7-6.5-1-2.5-.3-5.5-.8-6.7-1-1.2-.3-4.6-.7-7.5-1-2.9-.4-6.4-.8-7.8-1-2.6-.5-7.6-1-28.2-3.1-10.9-1.1-14.7-1.5-23.3-2.1-4.9-.3-11.5-.8-14.5-1-6.7-.6-89.6-1.4-90.1-1z"/></svg>