<?xml version="1.0" encoding="UTF-8"?>
<svg width="39px" height="39px" viewBox="0 0 39 39" version="1.1" xmlns="http://www.w3.org/2000/svg" xmlns:xlink="http://www.w3.org/1999/xlink">
    <!-- Generator: Sketch 48.2 (47327) - http://www.bohemiancoding.com/sketch -->
    <title>ion-ios-world-outline - Ionicons</title>
    <desc>Created with Sketch.</desc>
    <defs></defs>
    <g id="8" stroke="none" stroke-width="1" fill="none" fill-rule="evenodd" transform="translate(-1221.000000, -814.000000)">
        <g id="Group-2" transform="translate(1219.000000, 809.000000)" fill="#4A4A4A">
            <path d="M21.5,5 C26.8750269,5 31.4687309,6.90623094 35.28125,10.71875 C39.0937691,14.5312691 41,19.1249731 41,24.5 C41,29.8750269 39.0937691,34.4687309 35.28125,38.28125 C31.4687309,42.0937691 26.8750269,44 21.5,44 C16.1249731,44 11.5312691,42.0937691 7.71875,38.28125 C3.90623094,34.4687309 2,29.8750269 2,24.5 C2,19.1249731 3.90623094,14.5312691 7.71875,10.71875 C11.5312691,6.90623094 16.1249731,5 21.5,5 Z M22.25,16.625 L22.25,23.75 L29.28125,23.75 C29.2187497,20.8749856 28.8750031,18.2500119 28.25,15.875 C26.6249919,16.2500019 24.6250119,16.4999994 22.25,16.625 Z M22.25,15.125 C24.5625116,14.9999994 26.4374928,14.7500019 27.875,14.375 C27.2499969,12.2499894 26.4218802,10.5156317 25.390625,9.171875 C24.3593698,7.82811828 23.3125053,7.00000156 22.25,6.6875 L22.25,15.125 Z M20.75,6.6875 C18.4999888,7.25000281 16.6250075,9.81247719 15.125,14.375 C16.6250075,14.7500019 18.4999888,14.9999994 20.75,15.125 L20.75,6.6875 Z M20.75,16.625 C18.3124878,16.4999994 16.2812581,16.2500019 14.65625,15.875 C14.0312469,18.2500119 13.6875003,20.8749856 13.625,23.75 L20.75,23.75 L20.75,16.625 Z M12.125,23.75 C12.2500006,20.4374834 12.5937472,17.6875109 13.15625,15.5 C11.3437409,14.9999975 9.50000937,14.2187553 7.625,13.15625 C5.1249875,16.156265 3.78125094,19.6874797 3.59375,23.75 L12.125,23.75 Z M12.125,25.25 L3.59375,25.25 C3.78125094,29.3125203 5.1249875,32.843735 7.625,35.84375 C9.75001062,34.7187444 11.5937422,33.9375022 13.15625,33.5 C12.5937472,31.3124891 12.2500006,28.5625166 12.125,25.25 Z M13.625,25.25 C13.6875003,28.1250144 14.0312469,30.7499881 14.65625,33.125 C16.5937597,32.6874978 18.6249894,32.4062506 20.75,32.28125 L20.75,25.25 L13.625,25.25 Z M20.75,33.875 C18.4999888,34.0000006 16.6250075,34.2499981 15.125,34.625 C16.6250075,39.1875228 18.4999888,41.7499972 20.75,42.3125 L20.75,33.875 Z M22.25,42.3125 C23.3125053,41.9999984 24.3593698,41.1718817 25.390625,39.828125 C26.4218802,38.4843683 27.2499969,36.7500106 27.875,34.625 C26.4374928,34.2499981 24.5625116,34.0000006 22.25,33.875 L22.25,42.3125 Z M22.25,32.28125 C24.25001,32.3437503 26.24999,32.6249975 28.25,33.125 C28.8750031,30.7499881 29.2187497,28.1250144 29.28125,25.25 L22.25,25.25 L22.25,32.28125 Z M30.875,25.25 C30.7499994,28.3125153 30.3750031,31.0624878 29.75,33.5 C31.4375084,34.0000025 33.3124897,34.7812447 35.375,35.84375 C37.8750125,32.843735 39.2187491,29.3125203 39.40625,25.25 L30.875,25.25 Z M30.875,23.75 L39.40625,23.75 C39.2187491,19.6874797 37.8750125,16.156265 35.375,13.15625 C33.2499894,14.2812556 31.4062578,15.0624978 29.84375,15.5 C30.4062528,17.6875109 30.7499994,20.4374834 30.875,23.75 Z M34.25,11.9375 C31.7499875,9.4374875 28.9062659,7.81250375 25.71875,7.0625 C27.1562572,8.5625075 28.374995,10.8749844 29.375,14 C31.1250088,13.4374972 32.7499925,12.7500041 34.25,11.9375 Z M17.28125,7.0625 C13.9687334,7.81250375 11.1250119,9.4374875 8.75,11.9375 C9.750005,12.5000028 11.3749888,13.1562462 13.625,13.90625 C14.5625047,10.906235 15.7812425,8.62500781 17.28125,7.0625 Z M8.75,37.0625 C11.2500125,39.5625125 14.0937341,41.1874962 17.28125,41.9375 C15.7187422,40.3124919 14.4687547,38.000015 13.53125,35 C11.7187409,35.6250031 10.1250069,36.3124962 8.75,37.0625 Z M25.71875,41.9375 C28.9062659,41.1874962 31.7499875,39.5625125 34.25,37.0625 C32.7499925,36.2499959 31.1250088,35.5625028 29.375,35 C28.374995,38.1250156 27.1562572,40.4374925 25.71875,41.9375 Z" id="ion-ios-world-outline---Ionicons"></path>
        </g>
    </g>
</svg>