<?xml version="1.0" encoding="UTF-8"?>
<svg width="32px" height="50px" viewBox="0 0 32 50" version="1.1" xmlns="http://www.w3.org/2000/svg" xmlns:xlink="http://www.w3.org/1999/xlink">
    <!-- Generator: Sketch 48.2 (47327) - http://www.bohemiancoding.com/sketch -->
    <title>ion-ios-location-outline - Ionicons</title>
    <desc>Created with Sketch.</desc>
    <defs></defs>
    <g id="8" stroke="none" stroke-width="1" fill="none" fill-rule="evenodd" transform="translate(-88.000000, -840.000000)">
        <g id="Group-4" transform="translate(88.000000, 838.000000)" fill="#4A4A4A">
            <path d="M16.25,4.25 C12.3124803,4.25 8.99480516,5.59894484 6.296875,8.296875 C3.59894484,10.9948052 2.25,14.3124803 2.25,18.25 C2.25,23.0625241 4.80205781,29.8437063 9.90625,38.59375 C12.312512,42.7500208 14.4270742,46.0676959 16.25,48.546875 C18.0729258,46.0676959 20.187488,42.7500208 22.59375,38.59375 C27.6979422,29.8437063 30.25,23.0625241 30.25,18.25 C30.25,14.3124803 28.9010552,10.9948052 26.203125,8.296875 C23.5051948,5.59894484 20.1875197,4.25 16.25,4.25 Z M16.25,2.5 C20.6250219,2.5 24.3437347,4.03123469 27.40625,7.09375 C30.4687653,10.1562653 32,13.8749781 32,18.25 C32,21.8958516 30.6875131,26.4895556 28.0625,32.03125 C25.4374869,37.5729444 22.8125131,42.2031064 20.1875,45.921875 L16.25,51.5 C15.0833275,49.8958253 13.6250088,47.8359501 11.875,45.3203125 C10.1249912,42.8046749 7.79168125,38.5755505 4.875,32.6328125 C1.95831875,26.6900745 0.5,21.8958516 0.5,18.25 C0.5,13.8749781 2.03123469,10.1562653 5.09375,7.09375 C8.15626531,4.03123469 11.8749781,2.5 16.25,2.5 Z M16.25,11.25 C18.1458428,11.25 19.7864514,11.9427014 21.171875,13.328125 C22.5572986,14.7135486 23.25,16.3541572 23.25,18.25 C23.25,20.1458428 22.5572986,21.7864514 21.171875,23.171875 C19.7864514,24.5572986 18.1458428,25.25 16.25,25.25 C14.3541572,25.25 12.7135486,24.5572986 11.328125,23.171875 C9.94270141,21.7864514 9.25,20.1458428 9.25,18.25 C9.25,16.3541572 9.94270141,14.7135486 11.328125,13.328125 C12.7135486,11.9427014 14.3541572,11.25 16.25,11.25 Z M16.25,23.390625 C17.7083406,23.390625 18.9296826,22.8984424 19.9140625,21.9140625 C20.8984424,20.9296826 21.390625,19.7083406 21.390625,18.25 C21.390625,16.7916594 20.8984424,15.5703174 19.9140625,14.5859375 C18.9296826,13.6015576 17.7083406,13.109375 16.25,13.109375 C14.7916594,13.109375 13.5703174,13.6015576 12.5859375,14.5859375 C11.6015576,15.5703174 11.109375,16.7916594 11.109375,18.25 C11.109375,19.7083406 11.6015576,20.9296826 12.5859375,21.9140625 C13.5703174,22.8984424 14.7916594,23.390625 16.25,23.390625 Z" id="ion-ios-location-outline---Ionicons"></path>
        </g>
    </g>
</svg>