<svg width="337" height="59" viewBox="524 150 337 59" xmlns="http://www.w3.org/2000/svg"><g fill="#D4A547" fill-rule="evenodd"><path d="M545.7 179.7l-4.4-13.7-4 13.7h8.4zm15.7 14.7H545v-3.6c1-.9 2.2-1.8 3.4-2.3l-1.2-3.5h-11.4l-1.1 3.5c1.2.6 2.3 1.4 3.3 2.3v3.6h-14v-3.6c.9-.9 2-1.8 3.3-2.3l11-32.2h9.3l11.1 32.2c1.1.7 2 1.5 2.7 2.3v3.6zM588.5 167.6c0-3.2-1.6-6-5.9-6-.8 0-1.7.1-2.2.2v11.8h2.5c3.7.1 5.6-2.2 5.6-6zm12.4 26.4c-1.9.7-4.4 1-6.5 1-8.6 0-6.6-16-12.4-16h-1.7v9.4c1.3.6 2.3 1.5 3.3 2.4v3.6h-17.4v-3.6c1.4-.9 2.9-1.9 4.7-2.4v-26c-1.6-.5-3.3-1.6-4.7-2.4v-3.6h4.3c1.4 0 8.4-.3 13.8-.3 8.8 0 14 3.2 14 10.2 0 5.1-3.1 8.4-7.5 9.8 6.1.7 4.5 14.6 9.7 13.6l.4 4.3zM634.8 175.5c0-7.4-2.1-13.8-10.6-13.8-1.2 0-2.4.1-3.4.2v26.3c1.2.4 2.6.6 4.8.6 5.2-.1 9.2-4.2 9.2-13.3zm10-.9c0 13-9.3 20-21.5 20-4.1 0-10.1-.2-11.8-.2h-4.7v-3.6c1.4-.9 2.9-2 4.7-2.4v-25.9c-1.6-.5-3.3-1.6-4.7-2.5v-3.6h4.6c3 0 9.4-.2 14.5-.2 12.1 0 18.9 5.1 18.9 18.4zM663.7 152.2c-7 0-12.7 5.7-12.7 12.7 0 7 5.7 12.7 12.7 12.7 7 0 12.7-5.7 12.7-12.7.1-7-5.6-12.7-12.7-12.7zm0-2.2c8.2 0 14.9 6.7 14.9 14.9s-6.7 14.9-14.9 14.9-14.9-6.7-14.9-14.9 6.7-14.9 14.9-14.9z"/><path d="M669.7 171v-15l-15 5.4v3.7l5-1.8v11.3"/><g><path d="M717.9 174.8c0 3.3-.5 6.1-1.5 8.5-1 2.4-2.5 4.5-4.3 6.1-1.9 1.6-4.1 2.9-6.7 3.7-2.6.8-5.4 1.2-8.5 1.2-1.9 0-3.6 0-5.2-.1-1.5-.1-3-.1-4.4-.1v-37.7c1.5 0 3.2-.1 5.2-.1 2-.1 4-.1 6.1-.1 3 0 5.7.4 8.1 1.1 2.4.7 4.4 1.8 6.1 3.4 1.7 1.5 2.9 3.4 3.8 5.8.8 2.3 1.3 5.1 1.3 8.3zm-5.5.3c0-4.9-1.2-8.5-3.5-11s-6-3.8-10.9-3.8c-1 0-2 0-3 .1-1 0-1.9.1-2.6.1v29.2c.7.1 1.5.2 2.5.3.9.1 1.8.1 2.5.1 2.2 0 4.2-.3 6.1-.9 1.8-.6 3.4-1.5 4.8-2.7 1.3-1.2 2.4-2.8 3.1-4.6.6-2 1-4.2 1-6.8zM747 177.5c0 .7-.1 1.5-.2 2.4h-18.2c-.1 3.7.6 6.4 2.1 8.1 1.5 1.7 3.7 2.5 6.7 2.5 1.4 0 2.8-.2 4.3-.5 1.4-.3 2.7-.7 3.8-1.2l.4 4.1c-2.8 1.2-5.9 1.7-9.4 1.7-4.3 0-7.6-1.2-9.8-3.5-2.2-2.3-3.4-5.9-3.4-10.9 0-2.1.3-4 .8-5.8.6-1.8 1.4-3.3 2.4-4.6 1.1-1.3 2.4-2.3 3.9-3.1 1.5-.7 3.3-1.1 5.3-1.1 1.9 0 3.6.3 5 .9 1.4.6 2.6 1.5 3.5 2.5.9 1.1 1.6 2.3 2 3.7.6 1.7.8 3.2.8 4.8zm-5.2-1.2c.1-2.1-.4-3.7-1.6-5-1.1-1.3-2.7-1.9-4.7-1.9-1.8 0-3.3.6-4.5 1.9-1.2 1.3-1.9 2.9-2.2 5h13zM779.2 198.3c0 1.5-.4 2.8-1.1 4.1-.7 1.3-1.7 2.4-3 3.3-1.3.9-2.9 1.7-4.7 2.2-1.8.5-3.8.8-6 .8-3.6 0-6.5-.7-8.6-2.1-2.1-1.4-3.1-3.4-3.1-6.1 0-1.7.5-3.1 1.4-4.4.9-1.3 2-2.2 3.3-2.8-.9-.4-1.5-1-2-1.7s-.7-1.5-.7-2.4c0-1 .3-1.9.8-2.7.6-.8 1.3-1.5 2.3-1.9-1.4-.8-2.4-1.9-3.1-3.2-.7-1.4-1-2.9-1-4.7 0-1.5.3-2.8.8-4.2.5-1.3 1.3-2.5 2.4-3.5 1-1 2.3-1.8 3.8-2.3 1.5-.6 3.2-.8 5.2-.8.8 0 1.6 0 2.2.1.7.1 1.4.2 2.1.4h9.5v4H775c.8.5 1.3 1.3 1.8 2.2.4.9.6 2 .6 3.2 0 1.5-.3 2.9-.8 4.1-.5 1.3-1.3 2.4-2.3 3.3-1 .9-2.3 1.6-3.8 2.2-1.5.5-3.3.8-5.2.8-.6 0-1.2 0-1.9-.1-.6-.1-1.2-.2-1.7-.2-.6.3-1.1.6-1.4 1-.3.4-.4.9-.4 1.3 0 .8.4 1.4 1.1 1.7.8.3 2 .5 3.7.5h5.2c3 0 5.3.7 7 2.1 1.5 1.3 2.3 3.2 2.3 5.8zm-5 .5c0-1.3-.5-2.4-1.4-3.2-1-.8-2.4-1.2-4.4-1.2h-7.1c-1.1.6-1.9 1.3-2.6 2.2-.7.9-1 1.9-1 2.9 0 1.7.7 3 2.1 3.8 1.4.9 3.2 1.3 5.4 1.3 2.9 0 5.1-.5 6.7-1.6 1.5-1 2.3-2.5 2.3-4.2zm-2-22.7c0-2.1-.6-3.7-1.8-4.8-1.2-1.1-2.8-1.7-5-1.7s-4 .6-5.2 1.8c-1.2 1.2-1.8 2.8-1.8 4.7 0 2.1.6 3.7 1.8 4.8 1.2 1.1 2.9 1.6 5.1 1.6 2.1 0 3.8-.6 5.1-1.7 1.2-1.1 1.8-2.7 1.8-4.7zM807.1 177.5c0 .7-.1 1.5-.2 2.4h-18.2c-.1 3.7.6 6.4 2.1 8.1 1.5 1.7 3.7 2.5 6.7 2.5 1.4 0 2.9-.2 4.3-.5s2.7-.7 3.8-1.2l.5 4.1c-2.8 1.2-5.9 1.7-9.4 1.7-4.3 0-7.6-1.2-9.8-3.5-2.2-2.3-3.4-5.9-3.4-10.9 0-2.1.3-4 .8-5.8.6-1.8 1.4-3.3 2.4-4.6 1.1-1.3 2.4-2.3 3.9-3.1 1.5-.7 3.3-1.1 5.3-1.1 1.9 0 3.6.3 5 .9 1.4.6 2.6 1.5 3.5 2.5.9 1.1 1.6 2.3 2 3.7.5 1.7.7 3.2.7 4.8zm-5.1-1.2c.1-2.1-.4-3.7-1.6-5-1.1-1.3-2.7-1.9-4.7-1.9-1.8 0-3.3.6-4.5 1.9-1.2 1.3-1.9 2.9-2.2 5h13zM829.7 194.1c-.8.2-1.7.3-2.6.4-1 .1-1.9.1-2.8.1-1.4 0-2.6-.1-3.6-.5-1-.3-1.7-.8-2.3-1.4-.6-.7-1-1.6-1.2-2.6-.2-1.1-.4-2.3-.4-3.8v-16.1h-5.7v-3.9h5.7v-9l5.1-1.4v10.4h7.8v3.9h-7.8v14.3c0 1.2.1 2.1.2 2.9.1.8.3 1.3.7 1.8.3.5.7.8 1.2.9.5.2 1.2.2 1.9.2.6 0 1.3-.1 2-.1.7-.1 1.3-.2 1.8-.4v4.3zM860 179.8c0 2.1-.3 4-1 5.9-.7 1.8-1.6 3.4-2.7 4.7-1.2 1.3-2.6 2.4-4.3 3.2-1.7.8-3.6 1.2-5.6 1.2-1.9 0-3.6-.3-5.2-.8-1.5-.6-2.9-1.4-3.9-2.6-1.1-1.2-1.9-2.6-2.5-4.4-.6-1.8-.9-3.9-.9-6.4 0-2.1.3-4 .9-5.7.6-1.8 1.5-3.3 2.7-4.7 1.2-1.3 2.6-2.4 4.3-3.1 1.7-.8 3.6-1.1 5.7-1.1 1.8 0 3.5.3 5 .8s2.9 1.3 4 2.4c1.1 1.1 2 2.6 2.6 4.3.6 1.6.9 3.8.9 6.3zm-5.3.2c0-3.2-.6-5.7-1.9-7.4-1.3-1.8-3.2-2.6-5.8-2.6-1 0-2 .2-2.9.6-1 .4-1.8 1-2.5 1.8s-1.3 1.9-1.7 3.1c-.4 1.3-.6 2.8-.6 4.5 0 3.4.7 6 2 7.8 1.3 1.8 3.3 2.7 5.8 2.7 1 0 2-.2 3-.6.9-.4 1.7-1.1 2.5-1.9.7-.9 1.3-1.9 1.7-3.2.2-1.4.4-3 .4-4.8z"/></g></g></svg>