<svg width="336" height="87" viewBox="524 150 336 87" xmlns="http://www.w3.org/2000/svg"><g fill="#D4A547" fill-rule="evenodd"><path d="M659.2 161.5c-19.4 0-28.6 6-28.6 14.3 0 6.7 7.2 10.9 9.6 12.6 2.4 1.6.8 2.6-1.3 2.1-9.5-2.4-21.7-8.8-21.7-20.3 0-11.4 13.2-20.2 38.4-20.2 12.2 0 24.1 2 32.5 4.5 1.2.4 2.1.8 2.4 2l3.3 8.8c.2.5 0 .9-.6.9-.5 0-3.2-.8-5.5-1.3-5.8-1.3-19.2-3.4-28.5-3.4zm28.4 60.5c2.4-.5 5.1-1.3 5.5-1.3.6 0 .7.4.6.9l-3.3 8.8c-.3 1.2-1.2 1.6-2.4 2-8.4 2.5-20.3 4.5-32.5 4.5-25.1 0-38.4-8.8-38.4-20.2 0-11.5 12.2-17.9 21.7-20.3 2.1-.5 3.8.5 1.3 2.1-2.4 1.7-9.6 5.9-9.6 12.6 0 8.2 9.2 14.3 28.6 14.3 9.4 0 22.8-2.1 28.5-3.4zm-42.2-28.5c0 2.1 11.9 6.2 21.4 6.2 7.2 0 13.8-1.4 13.8-6.2 0-4.7-6.6-6.2-13.8-6.2-9.5 0-21.4 4.1-21.4 6.2zM582.2 176.8c0 4.3-2.8 7.5-11.7 9.2-7.1 1.3-17.3 1.4-33 1.4v-20c0-.7.6-1.2 1.4-1.2 28 0 43.3 1.7 43.3 10.6zM600 208c0-11-12.2-14.7-25.6-16v-.3c12.5-1.4 22.6-6.1 22.6-16.2 0-14.7-19.6-18.4-64.7-18.4-5.5 0-8.3 1.8-8.3 6.1v60.5c0 4.8 3 6.5 8.4 6.5 36.9.1 67.6-4.7 67.6-22.2zm-14.9.5c0 10.3-21.4 12.6-46.2 12.6-.8 0-1.4-.5-1.4-1.2v-22.8c15.2 0 25.7-.3 33.4.9 10.4 1.6 14.2 5.3 14.2 10.5zM776.5 167.6h-25.4v58.1c0 2.4-2 4-4.7 4h-4.2c-2.7 0-4.7-1.7-4.7-4v-58.1h-25.4c-2.7 0-4.8-1.8-4.8-4.2v-1.2c0-2.4 2.1-4.2 4.8-4.2h64.4c2.7 0 4.8 1.8 4.8 4.2v1.2c0 2.3-2.1 4.2-4.8 4.2zM846.2 213.6c0 6.4-7.5 7.5-15.5 7.5-16.1 0-28.1-4.2-28.1-13 0-7.4 13.6-12.3 43.6-12.3v17.8zm13.5 1.9v-30.8c0-15.6-10.8-27.9-40.3-27.9-7.2 0-14.3 1-16.7 1.8-2.7.9-6.9 7.9-6.9 9.7 0 .4.1.7.7.7 1.5 0 8.7-2.7 20.8-2.7 25.3 0 28.8 9.7 28.8 19.9-24.4 0-38.7 2.6-47.1 6.9-8.6 4.3-10.8 10.1-10.8 15.4 0 14.1 18.5 22 42 22 9.5 0 29.5-1.6 29.5-15z"/></g></svg>