<svg width="159" height="147" viewBox="524 150 159 147" xmlns="http://www.w3.org/2000/svg"><g fill="#D4A547" fill-rule="evenodd"><path d="M524 166v29.4h5V171h24.3v-5M637.4 171h24.3v24.4h5V166h-29.3"/><path d="M645.4 163h24.3v24.3h5V158h-29.3"/><path d="M653.4 150v5h24.3v24.3h5V150M529 291.8v-24.4h-5v29.4h29.3v-5M661.7 267.4v24.4h-24.3v5h29.3v-29.4M554.5 204.7c-5.4 0-9.2-3.8-9.2-9.3 0-5.3 4.1-9.2 9.4-9.2 3.1 0 5.2 1.1 7 2.8l-1.8 1.9c-.9-.9-2.6-2.2-5.4-2.2-3.8 0-6.5 2.9-6.5 6.8 0 4.2 3.1 6.9 6.7 6.9 2.1 0 4.8-1 5.5-3.8h-5.6v-2.2h8.6c-.1 5.1-4.1 8.3-8.7 8.3zM565.3 204.4v-18h10.4v2.3H568v5.3h7.4v2.3H568v5.7h8.3v2.3h-11M588.6 204.4l-7.2-8v8h-2.8v-18h6.1c3.2 0 5.9 1.6 5.9 5.1 0 3.1-2.1 5.3-5.5 5.3l7.1 7.7h-3.6v-.1zm-4.5-15.7h-2.7v6h2.7c3.1 0 3.8-1.7 3.8-3.2.1-1.4-.6-2.8-3.8-2.8zM609.4 204.4v-11.7l-6.1 6.8-6.3-6.8v11.7h-2.8v-18.7l9.2 9.9 8.8-9.9v18.8h-2.8M626.5 204.4l-2.1-5.3H619l-2.1 5.3H614l7.7-18.9 7.8 18.9h-3zm-5-12.6l-1.9 5h4l-2.1-5zM633.9 192.6v11.8h-2.8v-18.5l12.3 12.4v-11.9h2.8V205M561.9 228.4v-11.7l-6.1 6.8-6.3-6.8v11.7h-2.8v-18.7l9.2 9.9 8.8-9.9v18.8h-2.8M576.7 228.8c-5.2 0-9.3-4-9.3-9.3 0-5.3 4-9.3 9.3-9.3 5.2 0 9.2 4 9.2 9.3.1 5.2-3.9 9.3-9.2 9.3zm0-16.2c-3.5 0-6.4 2.9-6.4 6.9 0 3.7 2.9 6.9 6.4 6.9 3.5 0 6.4-3.2 6.4-6.9 0-4-2.9-6.9-6.4-6.9zM593.8 212.7v15.7H591v-15.7h-5v-2.4h12.9v2.4M600.8 228.4v-18h2.8v18.1h-2.8M615.5 228.8c-5.2 0-9.3-4-9.3-9.3 0-5.3 4-9.3 9.3-9.3 5.2 0 9.2 4 9.2 9.3.1 5.2-3.9 9.3-9.2 9.3zm0-16.2c-3.5 0-6.4 2.9-6.4 6.9 0 3.7 2.9 6.9 6.4 6.9 3.5 0 6.4-3.2 6.4-6.9 0-4-2.9-6.9-6.4-6.9zM630.4 216.6v11.8h-2.8v-18.5l12.3 12.4v-11.9h2.8V229M552.7 245.3h-3.2v7.1h-2.8v-18h5.7c4 0 6.4 1.9 6.4 5.4 0 2.2-1.4 5.5-6.1 5.5zm-.3-8.6h-2.9v6.3h2.5c2.3 0 4.1-.8 4.1-3.2 0-1.3-.3-3.1-3.7-3.1zM561.1 252.4v-18h2.8v18.1h-2.8M576.1 252.7c-5.3 0-9.2-3.8-9.2-9.3 0-5.3 4.2-9.2 9.2-9.2 2.6 0 4.9.8 6.6 2.7l-1.7 1.8c-1.6-1.7-2.9-2.1-5-2.1-3.3 0-6.2 2.7-6.2 6.7 0 3.8 2.8 7 6.6 7 1.2 0 3.3-.3 5.1-2.8l1.8 1.7c-2.3 2.9-5.2 3.5-7.2 3.5zM591.9 236.7v15.7h-2.8v-15.7H584v-2.4h13v2.4M607.7 252.7c-5.2 0-7.8-3.6-7.8-7.6v-10.7h2.8v9.9c0 3.8 2 6 5 6s4.8-2.2 4.8-6v-9.9h2.8v10.7c0 3.7-2.3 7.6-7.6 7.6zM628.2 252.4l-7.2-8v8h-2.8v-18h6.1c3.2 0 5.9 1.6 5.9 5.1 0 3.1-2.1 5.3-5.5 5.3l7.1 7.7h-3.6v-.1zm-4.5-15.7H621v6h2.7c3.1 0 3.8-1.7 3.8-3.2.1-1.4-.6-2.8-3.8-2.8zM634.2 252.4v-18h10.4v2.3H637v5.3h7.4v2.3H637v5.7h8.3v2.3h-11.1M549.5 260.7v5.3h7.4v2.3h-7.4v8h-2.8v-18.1h10.4v2.4h-7.6M567.6 276.7c-5.2 0-7.8-3.6-7.8-7.6v-10.7h2.8v9.9c0 3.8 2 6 5 6 3.1 0 4.8-2.2 4.8-6v-9.9h2.8v10.7c.1 3.7-2.3 7.6-7.6 7.6zM580.7 264.6v11.8H578v-18.5l12.3 12.4v-11.9h2.8V277M602.6 276.4h-5.9v-18.1h4.6c6.5 0 10.8 2.7 10.8 9.4 0 4.3-3.2 8.7-9.5 8.7zm-1.3-15.7h-1.8v13.4h2.9c4 0 6.9-2.8 6.9-6.6s-2.7-6.8-8-6.8z"/></g></svg>