<svg width="126" height="62" viewBox="524 149 126 62" xmlns="http://www.w3.org/2000/svg"><g fill="#D4A547" fill-rule="evenodd"><path d="M555.4 191h1.5v20h-3.5v-20M555.4 170.9h1.5V191h-3.5v-20.1M544.3 157.9c1 1.6 1.8 1.6 3 1.6-1-.8-1.7-1.7-2-2.3l-1.9-3c-.2-.9-.7-1.8-1.4-2.4l.6-.3c-1.2 0-2.4-.6-3.1-.6-.4 0-.7.3-.7.6 0 .4.4.8 1.1.8.2 0 .4 0 .6-.1.4.5.7 1 .7 1.7 0 1.3-1.6 2.3-3.1 2.3h-.3c-.1-.3-.6-.9-.6-1.5 0-1 .7-1.9.7-2.9 0-.6-.3-1-.4-1.2.2-.2.4-.4.5-.6-.1 0-.2.1-.4.1-.8 0-1.4-.2-2-.2-.3 0-.4.1-.4.2v.1c-.1-.1-.2-.1-.4-.1s-.4-.1-.6-.1c-.7 0-1 .3-1 .6 0 .2.2.6.4.9.3-.1.6-.2.8-.2.4 0 .7.4.9.8h-.6c-.7.2-1.2-.1-1.3-.1 0 .1.2.4.6.5.5.2 1.3.3 1.4.3 0 0-.1.3-.3.3h-.1c-.5-.1-.7-.1-1.4-.4 0 .3.7.9 1.3 1.1-.5.7-1.2 1.4-1.5 2.4h-.3c-1.5.1-3.1-.9-3.1-2.2 0-.7.3-1.2.7-1.7.2 0 .4.1.6.1.7 0 1.1-.4 1.1-.8.1-.4-.2-.6-.6-.6-.7 0-1.9.6-3.1.6.1.1.3.2.5.3-.7.6-1.2 1.5-1.4 2.4l-1.8 3c-.3.5-1 1.5-2 2.2 1.2 0 2 0 3-1.6l1-1.5.3.6-2 3c-.3.5-1 1.5-2 2.3 1.2 0 2 0 3-1.6l1.7-2.6.4.4-2.3 3.7c-.3.5-1 1.5-2 2.2 1.2 0 2 0 3-1.6l2.3-3.6c.1.1.3.2.5.3l-2.8 4.4c-.3.5-1 1.5-2 2.3 1.2 0 2 0 3-1.6l2.9-4.6c.2.1.3.1.5.2l-3.2 5.1c-.3.5-1 1.5-2 2.2 1.2 0 2 0 3-1.6l3.4-5.5h.1c.1.3.2.6.2.8 0 1.7-1.1 3.2-2.5 4.4.1 0 .2.1.4.1h.6c-.3.7-1 1.6-1.3 2.1-.4-.1-1.1-.1-1.5-.1-.4 0-.5.3-.5.5 0 .4.2.7.4.9.1-.2.2-.5 1.1-.5h.1c-.2.3-1 .9-1 1.4 0 .3.4.8.8.8v-.3c0-.4.3-.9.6-1.2v.2c0 .9.1 1.4.7 1.4.3 0 .5-.2.6-.2-.4-.4-.4-.6-.4-1.2v-.9h.5s.8-.1 1 .4c.2-.2.6-.5.6-.8 0-.2-.1-.5-.5-.5-.2 0-.7.1-1.1.1.1-.3.6-1 1.1-1.6.1.2.2.4.4.6 0-.4.2-1.5.8-2.1.1.4.2.9.2 1.8 0 2.3-.6 4-1.7 4.3.2.3.5.5.8.5.4 0 .7-.5.9-.9.1.3.5 1.2.8 1.2.3 0 .7-.8.8-1.2.2.5.5.9.9.9.3 0 .7-.2.8-.5-1.2-.3-1.7-2-1.7-4.3 0-1 .1-1.4.1-1.8.5.7.8 1.8.8 2.1.2-.2.3-.4.4-.6.4.5 1 1.3 1.1 1.6-.4 0-.9-.1-1.1-.1-.4 0-.5.2-.5.5s.3.6.6.8c.2-.4 1-.4 1-.4h.5v.9c0 .5 0 .8-.4 1.2.1 0 .3.2.6.2.6 0 .7-.4.7-1.4v-.2c.3.3.6.8.6 1.2v.3c.5 0 .8-.5.8-.8 0-.5-.7-1.1-1-1.4h.1c.8 0 1 .3 1.1.5.2-.2.4-.5.4-.9 0-.2 0-.5-.5-.5-.4 0-1.1.1-1.5.1-.3-.5-1-1.4-1.3-2.1h.6c.1 0 .3 0 .4-.1-1.4-1.2-2.5-2.7-2.5-4.4 0-.3.1-.6.2-.8h.1l3 5.6c1 1.6 1.8 1.6 3 1.6-1-.8-1.7-1.8-2-2.2l-3.2-5.1c.2-.1.3-.1.5-.2l2.8 4.5c1 1.6 1.8 1.6 3 1.6-1-.8-1.7-1.7-2-2.3l-2.8-4.4c.2-.1.3-.2.5-.3l2.3 3.6c1 1.6 1.8 1.6 3 1.6-1-.8-1.7-1.7-2-2.2l-2.3-3.7c.1-.1.3-.2.4-.4l1.6 2.6c1 1.6 1.8 1.6 3 1.6-1-.8-1.7-1.7-2-2.3l-1.7-3 .3-.6.9 1.5zm-15.3-3.5c0-1.1.8-2 1.1-2.3h.2c-.3.5-.8 1.1-.8 1.9 0 1.7 1.8 3.1 3.8 3.1v1.1c-2.3.1-4.3-1.8-4.3-3.8zm3.1 13.7h1.5c.2 0 .3 0 .3.2 0 .1-.2.4-.3.5-.2-.2-.6-.3-1-.3-.2 0-.5 0-.7.1v1.1c0 .5.1.9.3 1.1h-.2c-.3 0-.4-.1-.4-1.1v-.7c-.5.4-1 1.1-1 1.6-.4-.2-.6-.4-.6-.6 0-.3.4-.7.9-1.2l.3-.3h-.1c-.1 0-.3-.1-.5-.1-.5 0-.9.1-1.1.3-.1-.1-.1-.4-.1-.5 0-.1 0-.2.1-.2h.2c.6 0 1.3.1 1.6.2 0-.1 1.2-1.6 1.5-2.4h.2c.2 0 .3.2.4.4-.7.8-1.1 1.4-1.3 1.9zm6.2-2.4h.2c.3.8 1.4 2.3 1.5 2.4.3 0 1-.2 1.6-.2h.2s.1.1.1.2-.1.4-.1.5c-.2-.2-.6-.3-1.1-.3-.2 0-.4 0-.5.1l.3.3c.5.5.9.9.9 1.2 0 .2-.2.4-.3.5 0-.5-.5-1.2-1.1-1.6v.7c0 1-.1 1.1-.4 1.1h-.2c.2-.2.3-.5.3-1.1v-1.1h-.1c-.2 0-.5-.1-.7-.1-.5 0-.8 0-1 .3-.2-.1-.3-.3-.3-.5s.1-.2.3-.2h.3c.2 0 .5.1 1.2.1-.2-.5-.6-1.1-1.3-2-.1-.1 0-.3.2-.3zm-2.7-13.3c-.1-.3-.2-.6-.4-.8-.2-.2-.5-.5-.9-.5-.2 0-.5.1-.7.2 0-.1-.1-.4-.1-.6 0-.1.2-.3.7-.3 1 0 1.6.5 1.6 1.2 0 .3-.1.6-.2.8zm.5-1c0-.2-.1-.4-.2-.6 0-.2.1-.4.4-.2-.2.2 0 .5 0 .5s.4-.2.3-.4c.4.1.1.8-.5.7zm2 6.9v-1.1c2 0 3.7-1.5 3.7-3.1 0-.8-.5-1.5-.9-1.9h.2c.3.3 1.1 1.2 1.1 2.3.1 1.9-1.8 3.8-4.1 3.8z"/><path d="M556.9 151v20h-3.5v-20M567.9 151.6h-2.6v2.8h2.4v.8h-2.4v3.8h-1v-8.2h3.5v.8M572.5 156.2h-3v.4c0 .6.1 1 .2 1.3.2.4.4.6.9.6.7 0 1-.4 1-1.3h.9c-.1 1.3-.7 1.9-1.9 1.9-.8 0-1.3-.3-1.6-.8-.2-.4-.3-1-.3-1.9 0-1 .1-1.7.3-2.2.3-.7.9-1 1.7-1 .8 0 1.4.3 1.6.9.2.4.2 1 .2 1.9v.2zm-.9-.6c0-.5 0-.9-.1-1.2-.2-.4-.5-.6-.9-.6-.6 0-1 .4-1.1 1.1v.7h2.1zM577.7 159h-.9v-.7c-.4.5-.8.7-1.4.7-.7 0-1.2-.3-1.5-1-.2-.4-.3-1.1-.3-2 0-.9.1-1.5.3-2 .3-.6.7-.9 1.4-.9.6 0 1 .2 1.3.7v-3h.9v7.1c.1.2.1.5.2 1.1zm-1-2.8c0-.8-.1-1.3-.2-1.7-.2-.5-.5-.7-.9-.7s-.7.2-.9.7c-.1.3-.2.8-.2 1.5s.1 1.3.2 1.6c.2.5.4.7.8.7.5 0 .8-.2 1-.7.2-.2.2-.7.2-1.4zM583 156.2h-3v.4c0 .6.1 1 .2 1.3.2.4.4.6.9.6.7 0 1-.4 1-1.3h.9c-.1 1.3-.7 1.9-1.9 1.9-.8 0-1.3-.3-1.6-.8-.2-.4-.3-1-.3-1.9 0-1 .1-1.7.3-2.2.3-.7.9-1 1.7-1 .8 0 1.4.3 1.6.9.1.3.2 1 .2 1.9v.2zm-.9-.6c0-.5 0-.9-.1-1.2-.1-.5-.4-.7-.9-.7-.6 0-1 .4-1.1 1.1v.7h2.1v.1zM586.8 154h-.2c-.4 0-.8.1-1 .4-.2.3-.3.6-.3 1.1v3.5h-.9v-5.7h.9v.7c.3-.6.8-.9 1.4-.9 0 0 .1.3.1.9zM591.2 159h-.9v-.7c-.3.5-.8.7-1.5.7-.5 0-.9-.2-1.1-.5-.2-.3-.4-.7-.4-1.2 0-.8.3-1.3.9-1.6.4-.2 1.1-.3 2-.3v-.2c0-.5 0-.8-.1-1-.1-.3-.4-.5-.8-.5-.3 0-.5.1-.7.2-.2.2-.3.4-.3.6v.1h-.9c0-.5.2-.9.6-1.2.3-.2.8-.3 1.3-.3.7 0 1.1.2 1.4.5.3.3.5.8.5 1.4v4zm-.9-2.2v-.7h-.2c-1.2 0-1.8.4-1.8 1.2 0 .7.3 1.1.8 1.1.4 0 .7-.2.9-.5.2-.3.3-.7.3-1.1zM593.7 159h-.9v-8.2h.8v8.2M605.4 159h-.9v-7.5l-2.2 7.5h-1.1l-2.1-7.5v7.5h-.9v-8.2h1.6l2 7.2 2-7.2h1.6v8.2M608.1 151.9h-1v-1h1v1zm0 7.1h-.9v-5.7h.9v5.7zM613.6 159h-.9v-3.7c0-.5 0-.8-.1-1-.1-.3-.4-.5-.8-.5s-.7.2-.9.6c-.2.3-.3.7-.3 1.2v3.4h-.9v-5.7h.9v.7c.3-.6.8-.9 1.5-.9 1 0 1.5.6 1.5 1.8v4.1zM616.2 151.9h-1v-1h1v1zm0 7.1h-.9v-5.7h.9v5.7zM621 157.4c0 1.1-.6 1.7-1.8 1.7-1.2 0-1.7-.6-1.7-1.8h.9v.3c.1.6.3.9.8.9.6 0 .9-.3.9-.9 0-.3-.1-.6-.3-.7-.1-.1-.4-.3-.8-.5-.5-.3-.9-.5-1-.6-.3-.3-.4-.6-.4-1.1 0-.5.2-.9.5-1.1.3-.2.7-.4 1.2-.4.6 0 1 .1 1.3.4.2.2.4.6.4 1.2h-.9c0-.7-.3-1.1-.8-1.1-.2 0-.4.1-.6.2-.1.1-.2.3-.2.6s.1.5.3.7c.1.1.4.3.8.5.5.2.8.5.9.6.4.3.5.7.5 1.1zM624.5 159h-.7c-.5 0-.9-.1-1.1-.3-.2-.2-.2-.6-.2-1.1v-3.7h-.8v-.6h.8v-1.1l.9-.4v1.4h1v.7h-1v3.6c0 .3 0 .5.1.6.1.1.3.2.5.2h.4v.7h.1zM628 154h-.2c-.4 0-.8.1-1 .4-.2.3-.3.6-.3 1.1v3.5h-.9v-5.7h.9v.7c.3-.6.8-.9 1.4-.9.1 0 .1.3.1.9zM632.7 153.3l-2.3 7.9h-.9l.7-2.2-1.7-5.7h1l1.2 4.6 1.2-4.6M566.4 163.5h-.3c-.3 0-.5.1-.6.3-.1.1-.1.4-.1.7v.8h1v.7h-1v5h-.9v-5h-.8v-.7h.8v-.6c0-.6.1-1.1.2-1.3.2-.4.6-.6 1.2-.6h.5v.7zM571.2 168.1c0 1-.1 1.8-.4 2.2-.3.5-.8.8-1.6.8s-1.4-.3-1.7-.8c-.2-.4-.3-1.1-.3-2.1s.1-1.7.3-2.1c.3-.6.9-.9 1.7-.9.8 0 1.4.3 1.6.8.3.3.4 1.1.4 2.1zm-.9.6v-.9c0-.6 0-1.1-.1-1.3-.1-.5-.4-.7-.9-.7s-.8.2-1 .7c-.1.3-.1.7-.1 1.3v.8c0 .5 0 .9.1 1.2.2.4.5.6.9.6s.7-.2.9-.6c.2-.2.2-.6.2-1.1zM575.1 166h-.2c-.4 0-.8.1-1 .4-.2.3-.3.6-.3 1.1v3.5h-.9v-5.7h.9v.7c.3-.6.8-.9 1.4-.9 0 0 .1.3.1.9zM582.9 171H579v-8.2h3.8v.8H580v2.8h2.7v.8H580v3.1h2.9M587.7 169.2c0 1.3-.6 1.9-1.8 1.9-.8 0-1.4-.3-1.6-.8-.2-.4-.3-1.1-.3-2.1s.1-1.7.3-2.1c.3-.6.9-1 1.7-1 .6 0 1.1.2 1.4.5.2.3.4.8.4 1.4h-.9c0-.8-.3-1.2-.9-1.2-.5 0-.8.3-.9.8-.1.3-.1.8-.1 1.6 0 .9.1 1.5.2 1.8.1.4.4.5.8.5s.6-.1.7-.4c.1-.2.2-.5.2-.9h.8zM592.7 168.1c0 1-.1 1.8-.3 2.2-.3.5-.8.8-1.7.8-.8 0-1.4-.3-1.7-.8-.2-.4-.3-1.1-.3-2.1s.1-1.7.3-2.1c.3-.6.9-.9 1.7-.9.8 0 1.4.3 1.6.8.3.3.4 1.1.4 2.1zm-.9.6v-.9c0-.6 0-1.1-.1-1.3-.1-.5-.4-.7-.9-.7s-.8.2-1 .7c-.1.3-.1.7-.1 1.3v.8c0 .5 0 .9.1 1.2.2.4.5.6.9.6s.7-.2.9-.6c.1-.2.2-.6.2-1.1zM598 171h-.9v-3.6c0-.5 0-.8-.1-1-.1-.3-.4-.5-.8-.5s-.7.2-.9.6c-.2.3-.3.7-.3 1.2v3.3h-.9v-5.7h.9v.7c.3-.6.8-.9 1.5-.9 1 0 1.5.6 1.5 1.8v4.1zM603.4 168.1c0 1-.1 1.8-.3 2.2-.3.5-.8.8-1.7.8-.8 0-1.4-.3-1.7-.8-.2-.4-.3-1.1-.3-2.1s.1-1.7.3-2.1c.3-.6.9-.9 1.7-.9.8 0 1.4.3 1.6.8.3.3.4 1.1.4 2.1zm-.9.6v-.9c0-.6 0-1.1-.1-1.3-.1-.5-.4-.7-.9-.7s-.8.2-1 .7c-.1.3-.1.7-.1 1.3v.8c0 .5 0 .9.1 1.2.2.4.5.6.9.6s.7-.2.9-.6c.1-.2.2-.6.2-1.1zM611.1 171h-.9v-3.8c0-.4 0-.7-.1-.9-.1-.3-.3-.4-.7-.4-.7 0-1 .5-1 1.5v3.6h-.9v-3.9c0-.4 0-.7-.1-.8-.1-.3-.3-.4-.7-.4-.3 0-.6.2-.8.5-.2.3-.2.7-.2 1.1v3.5h-.9v-5.7h.9v.7c.3-.6.8-.9 1.3-.9.6 0 1.1.3 1.3.9.3-.6.8-.9 1.4-.9.5 0 .9.2 1.1.5.2.3.3.8.3 1.4v4zM613.7 163.9h-1v-1h1v1zm0 7.1h-.9v-5.7h.9v5.7zM618.9 169.2c0 1.3-.6 1.9-1.8 1.9-.8 0-1.4-.3-1.6-.8-.2-.4-.3-1.1-.3-2.1s.1-1.7.3-2.1c.3-.6.8-1 1.7-1 .6 0 1.1.2 1.4.5.2.3.4.8.4 1.4h-1c0-.8-.3-1.2-.9-1.2-.5 0-.8.3-.9.8-.1.3-.1.8-.1 1.6 0 .9.1 1.5.2 1.8.1.4.4.5.8.5s.6-.1.7-.4c.1-.2.2-.5.2-.9h.9zM628.2 171h-1l-.6-2.1h-2.8l-.6 2.1h-1l2.4-8.2h1.2l2.4 8.2zm-1.8-2.9l-1.2-4.4-1.2 4.4h2.4zM631.4 163.5h-.3c-.3 0-.5.1-.6.3-.1.1-.1.4-.1.7v.8h1v.7h-1v5h-.9v-5h-.8v-.7h.8v-.6c0-.6.1-1.1.2-1.3.2-.4.6-.6 1.2-.6h.5v.7zM634.7 163.5h-.4c-.3 0-.5.1-.6.3-.1.1-.1.4-.1.7v.8h1v.7h-1v5h-.9v-5h-.7v-.7h.8v-.6c0-.6.1-1.1.2-1.3.2-.4.6-.6 1.2-.6h.5v.7zM639.2 171h-.9v-.7c-.4.6-.9.8-1.5.8-.5 0-.9-.2-1.1-.5-.2-.3-.3-.7-.3-1.2 0-.8.3-1.3.9-1.6.4-.2 1.1-.3 2-.3v-.2c0-.5 0-.8-.1-1-.1-.3-.4-.5-.8-.5-.3 0-.5.1-.7.2-.2.2-.3.4-.3.6v.1h-.9v-.1c0-.5.2-.9.6-1.2.3-.2.8-.3 1.3-.3.7 0 1.1.2 1.4.5.2.3.4.8.4 1.4v4zm-.9-2.2v-.7h-.2c-1.2 0-1.8.4-1.8 1.2 0 .7.3 1.1.8 1.1.4 0 .7-.2.9-.5.2-.3.3-.7.3-1.1zM641.8 163.9h-1v-1h1v1zm-.1 7.1h-.9v-5.7h.9v5.7zM645.8 166h-.2c-.4 0-.8.1-1 .4-.2.3-.3.6-.3 1.1v3.5h-.9v-5.7h.9v.7c.3-.6.8-.9 1.4-.9.1 0 .1.3.1.9zM649.9 169.4c0 1.1-.6 1.7-1.8 1.7-1.2 0-1.7-.6-1.7-1.8h.9v.3c.1.6.3.9.8.9.6 0 .9-.3.9-.9 0-.3-.1-.6-.3-.7-.1-.1-.4-.3-.8-.5-.5-.3-.9-.5-1-.6-.3-.3-.4-.6-.4-1.1 0-.5.2-.9.5-1.1.3-.2.7-.4 1.2-.4.6 0 1 .1 1.3.4.2.3.4.7.4 1.3h-.9c0-.7-.3-1.1-.8-1.1-.2 0-.4.1-.6.2-.1.1-.2.3-.2.6s.1.5.3.7c.1.1.4.3.8.5.5.2.8.5.9.6.3.2.5.6.5 1zM567.7 183h-.9v-.7c-.4.6-.9.8-1.5.8-.5 0-.9-.2-1.1-.5-.2-.3-.4-.7-.4-1.2 0-.8.3-1.3.9-1.6.4-.2 1.1-.3 2-.3v-.2c0-.5 0-.8-.1-1-.1-.3-.4-.5-.8-.5-.3 0-.5.1-.7.2-.2.2-.3.4-.3.6v.1h-.8v-.1c0-.5.2-.9.6-1.2.3-.2.8-.3 1.3-.3.7 0 1.1.2 1.4.5.2.3.4.8.4 1.4v4zm-.9-2.2v-.7h-.2c-1.2 0-1.8.4-1.8 1.2 0 .7.3 1.1.8 1.1.4 0 .7-.2.9-.5.2-.3.3-.7.3-1.1zM573.1 183h-.9v-3.6c0-.5 0-.8-.1-1-.1-.3-.4-.5-.8-.5s-.7.2-.9.6c-.2.3-.3.7-.3 1.2v3.3h-.9v-5.7h.9v.7c.3-.6.8-.9 1.5-.9 1 0 1.5.6 1.5 1.8v4.1zM578.6 183h-.9v-.7c-.3.5-.8.7-1.3.7-.7 0-1.2-.3-1.5-1-.2-.4-.3-1.1-.3-2 0-.9.1-1.5.3-2 .3-.6.7-.9 1.4-.9.6 0 1 .2 1.3.7v-3h.9v7.1c0 .2 0 .5.1 1.1zm-.9-2.8c0-.8-.1-1.3-.2-1.7-.2-.5-.5-.7-.9-.7s-.7.2-.9.7c-.1.3-.2.8-.2 1.5s.1 1.3.2 1.6c.2.5.4.7.8.7.5 0 .8-.2 1-.7.1-.2.2-.7.2-1.4zM586.9 183h-3.8v-8.2h3.8v.8H584v2.8h2.7v.8H584v3.1h2.9M592.1 183h-.9v-3.6c0-.5 0-.8-.1-1-.1-.3-.4-.5-.8-.5s-.7.2-.9.6c-.2.3-.3.7-.3 1.2v3.3h-.9v-5.7h.9v.7c.3-.6.8-.9 1.5-.9 1 0 1.5.6 1.5 1.8v4.1zM597.4 180.2h-3v.4c0 .6.1 1 .2 1.3.2.4.4.6.9.6.7 0 1-.4 1-1.3h.9c-.1 1.3-.7 1.9-1.9 1.9-.8 0-1.3-.3-1.6-.8-.2-.4-.3-1-.3-1.9 0-1 .1-1.7.3-2.2.3-.7.9-1 1.7-1 .8 0 1.4.3 1.6.9.2.4.2 1 .2 1.9v.2zm-.9-.6c0-.5 0-.9-.1-1.2-.1-.5-.4-.7-.9-.7-.6 0-1 .4-1.1 1.1v.7h2.1v.1zM601.2 178h-.2c-.4 0-.8.1-1 .4-.2.3-.3.6-.3 1.1v3.5h-.9v-5.7h.9v.7c.3-.6.8-.9 1.4-.9.1 0 .1.3.1.9zM605.9 177.3v5.9c0 .7-.2 1.2-.5 1.5-.3.3-.8.5-1.5.5-1.2 0-1.8-.6-1.8-1.7h.9c0 .7.3 1 .9 1 .5 0 .8-.2.9-.5.1-.2.2-.6.2-1.1v-.8c-.3.4-.8.7-1.3.7-.7 0-1.2-.3-1.5-.9-.2-.4-.3-1-.3-1.8 0-.9.1-1.6.3-2.1.3-.6.8-1 1.4-1 .6 0 1.1.3 1.4.8v-.7h.9v.2zm-.9 2.6c0-.6-.1-1.1-.2-1.4-.2-.5-.5-.7-.9-.7-.5 0-.8.3-.9.8-.1.3-.1.8-.1 1.6 0 .7 0 1.1.1 1.4.1.5.4.7.9.7s.9-.3 1-.8c.1-.4.1-.9.1-1.6zM611.2 177.3l-2.3 7.9h-.9l.7-2.2-1.7-5.7h1l1.2 4.6 1.2-4.6h.8"/></g></svg>