<svg width="513" height="172" viewBox="524 149 513 172" xmlns="http://www.w3.org/2000/svg"><g fill="#D4A547" fill-rule="evenodd"><path d="M524 150.8v170.1h255.1V150.8H524zm174.6 53.8l2.1-6.6 2.1 6.6h6.9l-5.6 4 2.2 6.5-5.5-4.1-5.6 4.1 2.2-6.5-5.6-4h6.8zm-98.2 0l2.1-6.6 2.1 6.6h6.9l-5.6 4 2.2 6.5-5.6-4.1-5.6 4.1 2.2-6.5-5.6-4h6.9zm-14.5 28.3h6.9l2.1-6.6 2.1 6.6h6.9l-5.6 4 2.2 6.5-5.5-4.1-5.6 4.1 2.2-6.5-5.7-4zm22.1 38.9l-5.5-4.1-5.6 4.1 2.2-6.5-5.6-4h6.9l2.1-6.6 2.1 6.6h6.9l-5.6 4 2.1 6.5zm13.1-88l2.1-6.6 2.1 6.6h6.9l-5.6 4 2.2 6.5-5.5-4.1-5.6 4.1 2.2-6.5-5.6-4h6.8zm7.7 108.8l-5.5-4.1-5.6 4.1 2.2-6.5-5.6-4h6.9l2.1-6.6 2.1 6.6h6.9l-5.6 4 2.1 6.5zm20.7-116.4l2.1-6.6 2.1 6.6h6.9l-5.6 4 2.2 6.5-5.5-4.1-5.6 4.1 2.2-6.5-5.6-4h6.8zm7.6 123.9l-5.5-4.1-5.6 4.1 2.2-6.5-5.6-4h6.9l2.1-6.6 2.1 6.6h6.9l-5.6 4 2.1 6.5zm20.7-116.3l2.1-6.6 2.1 6.6h6.9l-5.6 4 2.2 6.5-5.5-4.1-5.6 4.1 2.2-6.5-5.6-4h6.8zm7.7 108.8l-5.5-4.1-5.6 4.1 2.2-6.5-5.6-4h6.9l2.1-6.6 2.1 6.6h6.9l-5.6 4 2.1 6.5zm20.7-20.8l-5.5-4.1-5.6 4.1 2.2-6.5-5.6-4h6.9l2.1-6.6 2.1 6.6h6.9l-5.6 4 2.1 6.5zm7.6-28.3l-5.5-4.1-5.6 4.1 2.2-6.5-5.6-4h6.9l2.1-6.6 2.1 6.6h6.9l-5.6 4 2.1 6.5zM847.4 190.2c-1 .5-2 .9-2.8 1.3-.8.4-2 .8-3.3 1.3-1.2.4-2.4.7-3.8.9-1.4.3-2.9.4-4.5.4-3.1 0-5.9-.4-8.4-1.3s-4.7-2.2-6.6-4.1c-1.8-1.8-3.3-4.1-4.3-6.9-1-2.8-1.5-6-1.5-9.7 0-3.5.5-6.6 1.5-9.4 1-2.8 2.4-5.1 4.3-7 1.8-1.8 4-3.3 6.6-4.2 2.6-1 5.4-1.5 8.5-1.5 2.3 0 4.6.3 6.8.8 2.3.6 4.8 1.5 7.6 2.9v6.7h-.5c-2.3-2-4.7-3.4-7-4.3-2.3-.9-4.8-1.3-7.4-1.3-2.2 0-4.1.3-5.8 1-1.7.7-3.3 1.8-4.6 3.2-1.3 1.4-2.3 3.2-3.1 5.4-.7 2.2-1.1 4.7-1.1 7.6 0 3 .4 5.6 1.2 7.7.8 2.2 1.9 3.9 3.1 5.3 1.3 1.4 2.9 2.5 4.7 3.1 1.8.7 3.7 1 5.6 1 2.7 0 5.3-.5 7.7-1.4 2.4-.9 4.6-2.3 6.7-4.2h.4v6.7zM873 167.3h-.3c-.8-.2-1.6-.3-2.3-.4-.8-.1-1.6-.1-2.7-.1-1.7 0-3.3.4-4.8 1.1-1.5.7-3 1.7-4.5 2.8v22.7H853v-32h5.4v4.7c2.1-1.7 4-2.9 5.6-3.6 1.6-.7 3.3-1.1 5-1.1.9 0 1.6 0 2 .1.4 0 1 .1 1.9.3v5.5h.1zM903.9 177.9h-23.5c0 2 .3 3.7.9 5.1.6 1.5 1.4 2.7 2.4 3.6 1 .9 2.2 1.6 3.5 2.1 1.4.5 2.9.7 4.5.7 2.2 0 4.4-.4 6.6-1.3 2.2-.9 3.8-1.7 4.7-2.6h.3v5.9c-1.8.8-3.7 1.4-5.5 1.9-1.9.5-3.9.8-5.9.8-5.3 0-9.4-1.4-12.4-4.3s-4.5-6.9-4.5-12.2c0-5.2 1.4-9.4 4.3-12.4 2.8-3.1 6.6-4.6 11.2-4.6 4.3 0 7.6 1.3 10 3.8 2.3 2.5 3.5 6.1 3.5 10.7v2.8h-.1zm-5.3-4.1c0-2.8-.7-5-2.1-6.5-1.4-1.5-3.5-2.3-6.4-2.3-2.9 0-5.2.8-6.9 2.5-1.7 1.7-2.7 3.8-2.9 6.3h18.3zM935.1 193.3h-5.3v-3.4c-.5.3-1.1.8-1.9 1.4-.8.6-1.6 1-2.4 1.4-.9.4-1.9.8-3.1 1.1-1.2.3-2.5.4-4.1.4-2.9 0-5.3-1-7.3-2.9s-3-4.3-3-7.3c0-2.4.5-4.4 1.6-5.9 1-1.5 2.5-2.7 4.4-3.5 1.9-.9 4.3-1.4 7-1.7 2.7-.3 5.6-.5 8.8-.7v-.8c0-1.2-.2-2.2-.6-3-.4-.8-1-1.4-1.8-1.9-.8-.4-1.7-.7-2.7-.9-1.1-.2-2.2-.2-3.3-.2-1.4 0-3 .2-4.7.6-1.7.4-3.5.9-5.4 1.6h-.3v-5.5c1-.3 2.6-.6 4.5-.9 2-.3 3.9-.5 5.9-.5 2.2 0 4.2.2 5.9.6 1.7.4 3.1 1 4.3 1.9 1.2.9 2.1 2 2.7 3.4.6 1.4.9 3.1.9 5.2v21.5h-.1zm-5.4-7.9v-8.9c-1.6.1-3.6.2-5.8.4-2.2.2-4 .5-5.3.8-1.5.4-2.8 1.1-3.7 2-1 .9-1.4 2.2-1.4 3.8 0 1.8.6 3.2 1.7 4.1 1.1.9 2.8 1.4 5.1 1.4 1.9 0 3.6-.4 5.2-1.1 1.5-.5 2.9-1.4 4.2-2.5zM959.6 193c-1 .3-2.1.5-3.3.7-1.2.2-2.3.3-3.2.3-3.3 0-5.7-.9-7.4-2.6-1.7-1.8-2.5-4.6-2.5-8.4v-17h-3.6v-4.5h3.6v-9.3h5.4v9.2h11.1v4.5h-11.1v14.5c0 1.7 0 3 .1 3.9.1.9.3 1.8.8 2.6.4.8 1 1.3 1.7 1.7.7.4 1.9.5 3.4.5.9 0 1.8-.1 2.7-.4 1-.3 1.6-.5 2.1-.6h.3v4.9h-.1zM970.1 156.1H964v-5.6h6.1v5.6zm-.4 37.2h-5.4v-31.9h5.4v31.9zM1005.9 161.4L993 193.3h-5.4l-12.8-31.9h5.8l9.9 25.4 9.8-25.4h5.6M1036.5 177.9H1013c0 2 .3 3.7.9 5.1.6 1.5 1.4 2.7 2.4 3.6 1 .9 2.2 1.6 3.5 2.1 1.4.5 2.9.7 4.5.7 2.2 0 4.4-.4 6.6-1.3 2.2-.9 3.8-1.7 4.7-2.6h.3v5.9c-1.8.8-3.7 1.4-5.5 1.9-1.9.5-3.9.8-5.9.8-5.3 0-9.4-1.4-12.4-4.3s-4.5-6.9-4.5-12.2c0-5.2 1.4-9.4 4.3-12.4 2.8-3.1 6.6-4.6 11.2-4.6 4.3 0 7.6 1.3 10 3.8 2.3 2.5 3.5 6.1 3.5 10.7v2.8h-.1zm-5.2-4.1c0-2.8-.7-5-2.1-6.5-1.4-1.5-3.5-2.3-6.4-2.3-2.9 0-5.2.8-6.9 2.5-1.7 1.7-2.7 3.8-2.9 6.3h18.3zM842.6 251.8h-28v-42.5h28v5h-22.4V226h22.4v5h-22.4v15.8h22.4M875.3 251.8h-5.4v-3.5c-1.8 1.4-3.5 2.5-5.2 3.3-1.7.8-3.5 1.1-5.5 1.1-3.4 0-6-1-7.8-3.1-1.9-2-2.8-5.1-2.8-9v-20.7h5.4v18.2c0 1.6.1 3 .2 4.2.2 1.2.5 2.1 1 3 .5.8 1.2 1.4 2 1.8.8.4 2 .6 3.6.6 1.4 0 2.9-.4 4.6-1.1 1.6-.7 3.2-1.6 4.6-2.8v-23.9h5.4v31.9h-.1zM903.3 225.8h-.3c-.8-.2-1.6-.3-2.3-.4-.8-.1-1.6-.1-2.7-.1-1.7 0-3.3.4-4.8 1.1-1.5.7-3 1.7-4.5 2.8v22.7h-5.4v-32h5.4v4.7c2.1-1.7 4-2.9 5.6-3.6 1.6-.7 3.3-1.1 5-1.1.9 0 1.6 0 2 .1.4 0 1 .1 1.9.3v5.5h.1zM934.8 235.9c0 5.2-1.3 9.3-4 12.3s-6.2 4.5-10.7 4.5c-4.5 0-8.1-1.5-10.8-4.5-2.7-3-4-7.1-4-12.3 0-5.2 1.3-9.3 4-12.3s6.2-4.5 10.8-4.5c4.5 0 8 1.5 10.7 4.5 2.6 3 4 7.1 4 12.3zm-5.6 0c0-4.1-.8-7.2-2.4-9.2-1.6-2-3.9-3-6.7-3-2.9 0-5.2 1-6.8 3-1.6 2-2.4 5.1-2.4 9.2 0 4 .8 7 2.4 9.1 1.6 2.1 3.9 3.1 6.8 3.1s5.1-1 6.7-3.1c1.6-2.1 2.4-5.1 2.4-9.1zM969.2 235.5c0 2.6-.4 5-1.1 7.1-.7 2.1-1.8 4-3.1 5.4-1.3 1.4-2.7 2.5-4.4 3.3-1.7.8-3.5 1.2-5.4 1.2-1.7 0-3.2-.2-4.5-.5-1.3-.4-2.7-.9-4.1-1.7v13.4h-5.4v-43.8h5.4v3.3c1.4-1.2 3-2.2 4.8-3 1.8-.8 3.7-1.2 5.7-1.2 3.8 0 6.8 1.5 9 4.4 2 2.9 3.1 6.9 3.1 12.1zm-5.5.1c0-3.8-.7-6.7-2-8.6-1.3-1.9-3.3-2.9-6.1-2.9-1.5 0-3.1.3-4.7 1s-3.1 1.5-4.5 2.6v18.1c1.5.7 2.8 1.2 3.9 1.4 1.1.2 2.3.4 3.7.4 3 0 5.3-1 7-3 1.8-2 2.7-5 2.7-9zM1002.7 236.4h-23.5c0 2 .3 3.7.9 5.1.6 1.5 1.4 2.7 2.4 3.6 1 .9 2.2 1.6 3.5 2.1 1.4.5 2.9.7 4.5.7 2.2 0 4.4-.4 6.6-1.3 2.2-.9 3.8-1.7 4.7-2.6h.3v5.9c-1.8.8-3.7 1.4-5.5 1.9-1.9.5-3.9.8-5.9.8-5.3 0-9.4-1.4-12.4-4.3s-4.5-6.9-4.5-12.2c0-5.2 1.4-9.4 4.3-12.4 2.8-3.1 6.6-4.6 11.2-4.6 4.3 0 7.6 1.3 10 3.8 2.3 2.5 3.5 6.1 3.5 10.7v2.8h-.1zm-5.2-4.1c0-2.8-.7-5-2.1-6.5-1.4-1.5-3.5-2.3-6.4-2.3-2.9 0-5.2.8-6.9 2.5-1.7 1.7-2.7 3.8-2.9 6.3h18.3z"/><g><path d="M950.2 294.4h8.3l-1.1-2.7h-6.1l.5-1.1h5.1l-1.1-2.7h-6.6l-1 2.7h3.6l-.5 1.1h-3.6l-1.1 2.7h3.6"/><path d="M950.2 294.4h8.3l-1.1-2.7h-6.1l.5-1.1h5.1l-1.1-2.7h-6.6l-1 2.7h3.6l-.5 1.1h-3.6l-1.1 2.7h3.6M953.3 286.8h2.1l-1.2-2.9h-3.3l-1.2 2.9h3.6"/><path d="M953.3 286.8h2.1l-1.2-2.9h-3.3l-1.2 2.9h3.6M955.5 305.7H963.2l-1.1-2.6H958l-.5-1.1h4.1l-1.1-2.7h-4.1l-.3-.7-.3.7.3-.7.3.7h-3.6l1.1 2.7H957.5l.5 1.1h-3.6"/><path d="M955.5 305.7H963.2l-1.1-2.6H958l-.5-1.1h4.1l-1.1-2.7h-4.1l-.3-.7-.3.7.3-.7.3.7h-3.6l1.1 2.7H957.5l.5 1.1h-3.6M954.3 302.9l.4-.9M954.3 302.9l.4-.9M956.3 298.2h3.7l-1-2.7h-12.9l-1.1 2.7h11"/><path d="M956.3 298.2h3.7l-1-2.7h-12.9l-1.1 2.7h11"/><path d="M964.7 309.5l-1-2.6h-7.8l.3.6h-7.3l.2-.6h-4l.4-1.2h4.1l1.1-2.6h-4.1l.5-1.1h4.1l1.1-2.7h-4.1l.5-1.1-.5 1.1h-3.6l-1.1 2.7h3.6l-.5 1.1H943l-1.1 2.6h3.6l-.5 1.2h-3.6l-1.1 2.6h3.6"/><path d="M964.7 309.5l-1-2.6h-7.8l.3.6h-7.3l.2-.6h-4l.4-1.2h4.1l1.1-2.6h-4.1l.5-1.1h4.1l1.1-2.7h-4.1l.5-1.1-.5 1.1h-3.6l-1.1 2.7h3.6l-.5 1.1H943l-1.1 2.6h3.6l-.5 1.2h-3.6l-1.1 2.6h3.6M964.3 318.3h-3.6l1.1 2.5h7.6l-1.1-2.5"/><path d="M964.3 318.3h-3.6l1.1 2.5h7.6l-1.1-2.5M967.9 317.1l-1.1-2.6h-28.5l-2.6 6.3h7.6l1.1-2.5h-7.1v-1.2h7.5l1-2.2h13.5l.9 2.2h3.6"/><path d="M967.9 317.1l-1.1-2.6h-28.5l-2.6 6.3h7.6l1.1-2.5h-7.1v-1.2h7.5l1-2.2h13.5l.9 2.2h3.6M966.3 313.3l-1.1-2.6h-25.3l-1.1 2.6h3.6"/><path d="M966.3 313.3l-1.1-2.6h-25.3l-1.1 2.6h3.6M953.7 282.8l-1.2-2.8-1.1 2.8"/><path d="M953.7 282.8l-1.2-2.8-1.1 2.8M882.4 302v-2.7h-22.5v2.7h3.8"/><path d="M882.4 302v-2.7h-22.5v2.7h3.8M867.2 298.2v-2.7h-7.3v2.7h3.8"/><path d="M867.2 298.2v-2.7h-7.3v2.7h3.8M867.2 294.4v-2.7h-7.3v2.7h3.8"/><path d="M867.2 294.4v-2.7h-7.3v2.7h3.8M867.2 290.6v-.1h15.2v-2.6h-22.5v2.7h3.8"/><path d="M867.2 290.6v-.1h15.2v-2.6h-22.5v2.7h3.8M882.4 286.8v-2.9h-22.5v2.9h3.8"/><path d="M882.4 286.8v-2.9h-22.5v2.9h3.8M882.4 317.2v-2.7h-22.5v2.7h3.8"/><path d="M882.4 317.2v-2.7h-22.5v2.7h3.8M863.7 318.3h-3.8v2.5h22.5v-2.5"/><path d="M863.7 318.3h-3.8v2.5h22.5v-2.5M867.2 313.4v-2.7h-7.3v2.7h3.8"/><path d="M867.2 313.4v-2.7h-7.3v2.7h3.8M867.2 309.5v-2.6h-7.3v2.6h3.8"/><path d="M867.2 309.5v-2.6h-7.3v2.6h3.8M867.2 305.7h15.2v-2.6h-22.5v2.6h3.8"/><path d="M867.2 305.7h15.2v-2.6h-22.5v2.6h3.8M920.5 299.3h-4.2c0-.1-.1-.2-.1-.3 0 .2.1.3.1.3h-3.7s0-.1-.1-.2c.3.9.4 1.8.4 2.8h7.7v-.5c.1-.7 0-1.4-.1-2.1z"/><path d="M920.5 299.3h-4.2c0-.1-.1-.2-.1-.3 0 .2.1.3.1.3h-3.7s0-.1-.1-.2c.3.9.4 1.8.4 2.8h7.7v-.5c.1-.7 0-1.4-.1-2.1zM913.5 286.8c-2.2-1.8-4.4-2.9-5.9-2.9h-17.2v2.9H913.5z"/><path d="M913.5 286.8c-2.2-1.8-4.4-2.9-5.9-2.9h-17.2v2.9H913.5zM916.9 290.6c-.7-1-1.5-1.9-2.2-2.7h-24.4v2.7H916.9z"/><path d="M916.9 290.6c-.7-1-1.5-1.9-2.2-2.7h-24.4v2.7H916.9zM916.6 303.1h-3.7c-.1.9-.3 1.8-.7 2.7h8c.2-.9.3-1.8.4-2.7h-4z"/><path d="M916.6 303.1h-3.7c-.1.9-.3 1.8-.7 2.7h8c.2-.9.3-1.8.4-2.7h-4zM919.6 295.5h-8.9c.6.8 1.1 1.7 1.5 2.7H920.3c-.2-.9-.4-1.8-.7-2.7z"/><path d="M919.6 295.5h-8.9c.6.8 1.1 1.7 1.5 2.7H920.3c-.2-.9-.4-1.8-.7-2.7zM919.9 306.9h-8.2c-.5.9-1 1.8-1.7 2.7h8.9c.4-.9.7-1.8 1-2.7z"/><path d="M919.9 306.9h-8.2c-.5.9-1 1.8-1.7 2.7h8.9c.4-.9.7-1.8 1-2.7zM904.4 291.7c1.8.2 3.8 1.1 5.3 2.7h3.7l.9.9c-.2-.2-.5-.6-.8-.9h5.7c-.4-.9-.9-1.8-1.4-2.7h-13.4z"/><path d="M904.4 291.7c1.8.2 3.8 1.1 5.3 2.7h3.7l.9.9c-.2-.2-.5-.6-.8-.9h5.7c-.4-.9-.9-1.8-1.4-2.7h-13.4zM913.5 309.8c-.3.3-.5.6-.7.7.3-.2.5-.5.7-.7z"/><path d="M913.5 309.8c-.3.3-.5.6-.7.7.3-.2.5-.5.7-.7zM913.3 317.2c1-.8 1.9-1.7 2.7-2.7h-25.7v2.7h23z"/><path d="M913.3 317.2c1-.8 1.9-1.7 2.7-2.7h-25.7v2.7h23zM916.8 313.4c.6-.9 1.1-1.8 1.6-2.7H909c-1.7 1.6-3.6 2.7-5.4 2.7h-5.8v-2.7h-7.5v2.7h26.5z"/><path d="M916.8 313.4c.6-.9 1.1-1.8 1.6-2.7H909c-1.7 1.6-3.6 2.7-5.4 2.7h-5.8v-2.7h-7.5v2.7h26.5zM894 318.3h-3.7v2.6h12.9c3.2 0 6.1-1 8.6-2.6H894z"/><path d="M894 318.3h-3.7v2.6h12.9c3.2 0 6.1-1 8.6-2.6H894zM897.7 302v-2.7h-7.4v2.7h3.7"/><path d="M897.7 302v-2.7h-7.4v2.7h3.7M897.7 298.2v-2.7h-7.4v2.7h3.7"/><path d="M897.7 298.2v-2.7h-7.4v2.7h3.7M897.7 294.4v-2.7h-7.4v2.7h3.7"/><path d="M897.7 294.4v-2.7h-7.4v2.7h3.7M897.8 309.5v-2.6h-7.5v2.6h3.7"/><path d="M897.8 309.5v-2.6h-7.5v2.6h3.7M897.8 305.7v-2.6h-7.5v2.6h3.7"/><path d="M897.8 305.7v-2.6h-7.5v2.6h3.7M852.1 283v-1.7l-1.6 1.7"/><path d="M852.1 283v-1.7l-1.6 1.7M814.5 281.7v1.3h1.3"/><path d="M814.5 281.7v1.3h1.3M826.4 294.4l-2.5-2.7h-9.4v2.7h3.7"/><path d="M826.4 294.4l-2.5-2.7h-9.4v2.7h3.7M829.9 298.2l-2.5-2.7H814.5v2.7h3.7"/><path d="M829.9 298.2l-2.5-2.7H814.5v2.7h3.7M822 305.7v-2.6h-7.5v2.6h3.7"/><path d="M822 305.7v-2.6h-7.5v2.6h3.7M822 309.5v-2.6h-7.5v2.6h3.7"/><path d="M822 309.5v-2.6h-7.5v2.6h3.7M822.9 290.6l-2.5-2.7h-5.9v2.7h3.7"/><path d="M822.9 290.6l-2.5-2.7h-5.9v2.7h3.7M819.3 286.8l-2.7-2.9h-2.1v2.9h3.7"/><path d="M819.3 286.8l-2.7-2.9h-2.1v2.9h3.7M850.6 286.8h1.5v-2.9h-2.4l-2.6 2.9h3.5"/><path d="M850.6 286.8h1.5v-2.9h-2.4l-2.6 2.9h3.5M822 313.3v-2.6h-7.5v2.6h3.7"/><path d="M822 313.3v-2.6h-7.5v2.6h3.7M852.1 291.7h-9.5l-2.4 2.7h11.9"/><path d="M852.1 291.7h-9.5l-2.4 2.7h11.9M840.3 298.2h11.8v-2.7h-9.4l1-1.1-1 1.1h-3.5l-2.5 2.7h3.6"/><path d="M840.3 298.2h11.8v-2.7h-9.4l1-1.1-1 1.1h-3.5l-2.5 2.7h3.6M852.1 290.6v-2.7h-6l-2.5 2.7h3.6"/><path d="M852.1 290.6v-2.7h-6l-2.5 2.7h3.6M822 317.1v-2.7h-7.5v2.7h3.7"/><path d="M822 317.1v-2.7h-7.5v2.7h3.7M852.1 317.1v-2.7h-7.4v2.7h3.7"/><path d="M852.1 317.1v-2.7h-7.4v2.7h3.7M848.4 310.7h-3.7v2.6h7.4v-2.6"/><path d="M848.4 310.7h-3.7v2.6h7.4v-2.6M848.4 318.2h-3.7v2.6h7.4v-2.6"/><path d="M848.4 318.2h-3.7v2.6h7.4v-2.6M848.4 303.1h-3.7v2.6h7.4v-2.6"/><path d="M848.4 303.1h-3.7v2.6h7.4v-2.6M848.4 306.9h-3.7v2.6h7.4v-2.6"/><path d="M848.4 306.9h-3.7v2.6h7.4v-2.6M834.6 310.7h-3.8l2.6 3 2.5-3"/><path d="M834.6 310.7h-3.8l2.6 3 2.5-3M840 305.7l2.2-2.6h-14.1l-1-1.1h16l1.6-1.9v1.9h2l-.5.5.5-.5h5.4v-2.7H835.7l-2.3 2.6-2.4-2.6h-16.5v2.7h7.5v-1.5l1.2 1.5h3.9l1 1.1h-3.9l2.3 2.6h3.9l.9 1.2-.9-1.2"/><path d="M840 305.7l2.2-2.6h-14.1l-1-1.1h16l1.6-1.9v1.9h2l-.5.5.5-.5h5.4v-2.7H835.7l-2.3 2.6-2.4-2.6h-16.5v2.7h7.5v-1.5l1.2 1.5h3.9l1 1.1h-3.9l2.3 2.6h3.9l.9 1.2-.9-1.2M818.2 318.2h-3.7v2.6h7.5v-2.6"/><path d="M818.2 318.2h-3.7v2.6h7.5v-2.6M836.8 309.5l2.3-2.6h-11.6l2.3 2.6h3.8l1 1.2-.9-1.2"/><path d="M836.8 309.5l2.3-2.6h-11.6l2.3 2.6h3.8l1 1.2-.9-1.2M933.7 302v-2.7h-7.6v2.7h3.6"/><path d="M933.7 302v-2.7h-7.6v2.7h3.6M933.7 294.4v-2.7h-7.6v2.7h3.6"/><path d="M933.7 294.4v-2.7h-7.6v2.7h3.6M933.7 286.8v-2.9h-7.6v2.9h3.6"/><path d="M933.7 286.8v-2.9h-7.6v2.9h3.6M933.7 290.6v-2.7h-7.6v2.7h3.6"/><path d="M933.7 290.6v-2.7h-7.6v2.7h3.6M933.7 298.2v-2.7h-7.6v2.7h3.6"/><path d="M933.7 298.2v-2.7h-7.6v2.7h3.6M933.7 317.1v-2.6h-7.6v2.6h3.6"/><path d="M933.7 317.1v-2.6h-7.6v2.6h3.6M929.7 318.3h-3.6v2.5h7.6v-2.5"/><path d="M929.7 318.3h-3.6v2.5h7.6v-2.5M933.7 309.5v-2.6h-7.6v2.6h3.6"/><path d="M933.7 309.5v-2.6h-7.6v2.6h3.6M933.7 305.7v-2.6h-7.6v2.6h3.6"/><path d="M933.7 305.7v-2.6h-7.6v2.6h3.6M933.7 313.3v-2.6h-7.6v2.6h3.6"/><path d="M933.7 313.3v-2.6h-7.6v2.6h3.6M848.4 318.2v-1.1h7.4v1.1M848.4 314.4v-1.1h7.4v1.1M848.4 310.7v-1.2h7.4v1.2M848.4 306.9v-1.2h7.4v1.2M848.4 303.1V302h7.4v1.1M839.3 299.3l1-1.1h15.5v1.1M842.7 295.5l1-1.1h12.1v1.1M846.1 291.7l1.1-1.1h8.6v1.1M849.6 287.9l1-1.1h5.2v1.1M853.2 283.9l.8-.9h1.8v.9M828.1 303.1l-1-1.1h19.6l-.9 1.1M831.3 306.9l-.9-1.2h13.1l-.9 1.2M834.6 310.7l-.9-1.2h6.6l-.9 1.2M825.7 318.2v-1.1h-7.5v1.1M825.7 314.4v-1.1h-7.5v1.1M825.7 310.7v-1.2h-7.5v1.2M825.7 306.9v-1.2h-7.5v1.2M825.7 303.1V302h-7.5v1.1M834.8 299.3l-1.1-1.1h-15.5v1.1M831.3 295.5l-1-1.1h-12.1v1.1M827.9 291.7l-1-1.1h-8.7v1.1M824.5 287.9l-1.1-1.1h-5.2v1.1M820.8 283.9l-.8-.9h-1.8v.9M863.7 283.9v-.9h22.5v.9M863.7 287.9v-1.1h22.5v1.1M863.7 291.7v-1.1h7.3v1.1M863.7 295.5v-1.1h7.3v1.1M863.7 299.3v-1.1h22.5v1.1M863.7 303.1V302h22.5v1.1M863.7 306.9v-1.2h7.3v1.2M863.7 310.7v-1.2h7.3v1.2M863.7 314.5v-1.1h22.5v1.1M863.7 318.3v-1.1h22.5v1.1M917.1 286.8H894v1.1h24.4c-.4-.4-.9-.8-1.3-1.1zM920.7 290.6H894v1.1h27.5c-.4-.5-.8-1.1-.8-1.1zM894 295.5v-1.1h7.4v1.1M894 299.3v-1.1h7.4v1.1M894 303.1V302h7.4v1.1M894 306.9v-1.2h7.4v1.2M894 310.7v-1.2h7.4v1.2M919.7 314.5H894v-1.1h26.5c-.4.6-.8 1.1-.8 1.1zM917 317.2h-23v1.1h21.5c.7-.5 1.5-1.1 1.5-1.1zM923.3 295.5h-8.9s-.4-.6-1-1.1h9.4c.2.4.5 1.1.5 1.1zM924.2 299.3h-7.9c-.1-.3-.2-.6-.4-1.1h8.1c.1.4.2 1.1.2 1.1zM916.6 303.1V302h7.8l-.1 1.1M923.6 306.9h-8.2c.1-.1.3-.7.5-1.1h8c-.1.4-.3 1.1-.3 1.1zM912.7 310.7h9.5c.1-.2.3-.7.5-1.1h-8.9l-1.1 1.1zM911.6 283.9H894v-.9h13.2c2.1 0 4.3.9 4.4.9zM929.7 295.5v-1.1h7.6v1.1M929.7 299.3v-1.1h7.6v1.1M929.7 303.1V302h7.6v1.1M929.7 306.9v-1.2h7.6v1.2M929.7 310.7v-1.2h7.6v1.2M929.7 314.5v-1.2h7.6v1.2M929.7 318.3v-1.2h7.6v1.2M929.7 291.7v-1.1h7.6v1.1M929.7 287.9v-1.1h7.6v1.1M929.7 283.9v-1.1h7.6v1.1M964.3 318.3l-.5-1.2h7.7l.4 1.2M941.9 314.5l.5-1.2h27.5l.5 1.2M943.5 310.7l.4-1.2h24.4l.5 1.2M959.6 306.9l-.5-1.2h7.6l.5 1.2M958 303.1l-.5-1.1h7.7l.4 1.1M956.4 299.3l-.4-1.1h7.6l.5 1.1M949.7 295.5l.5-1.1h11.9l.5 1.1M952.7 306.9l.5-1.2h-7.7l-.4 1.2M954.3 303.1l.4-1.1h-7.6l-.5 1.1"/><path d="M955.8 299.3l.5-1.1h-7.6l-.5 1.1M940.3 318.3l.5-1.2h7.6l-.4 1.2M951.3 291.7l.5-1.1h8.7l.5 1.1M952.8 287.9l.5-1.1h5.7l.4 1.1M954.5 283.9l.5-1.1h2.3l.5 1.1"/></g></g></svg>