<svg width="303" height="85" viewBox="524 150 303 85" xmlns="http://www.w3.org/2000/svg"><g fill="#D4A547" fill-rule="evenodd"><path d="M769.9 210.8c7.1 0 11.5-3.4 11.5-8.4 0-8.5-11.3-6.2-11.3-10.9 0-1.9 1.6-3.1 4.3-3.1 3.3 0 5.1.8 5.1.8l.2-4.8s-2.3-.3-4.8-.3c-7 0-10.7 3.4-10.7 8.1 0 8.7 11.2 5.7 11.2 10.9 0 2-1.9 3.3-5 3.3-2.8 0-5.6-.9-5.6-.9l-.2 5c0-.2 3.1.3 5.3.3zm45.7-22.5c3.1 0 5.1 1.9 5 5.6h-10.7c.6-3.4 2.8-5.6 5.7-5.6zm10.6 9.6s.2-1.2.2-2.6c0-6.2-3.1-11.2-10.4-11.2-7.8 0-12.1 5.7-12.1 13.5 0 9 4.5 13.2 12.7 13.2 5.4 0 8.8-1.5 8.8-1.5l-.5-4.7s-3.4 1.7-7.6 1.7c-5 0-7.4-2.8-7.4-8.4h16.3zm-30.6 12.9c2.5 0 5.3-.5 5.3-.5v-5s-1.9.5-3.4.5c-2.6 0-3.3-.9-3.3-4.7v-12h6.7v-4.5h-6.7V175l-5.7 1.9v7.8h-4.8v4.5h4.8V203c0 5.6 1.6 7.8 7.1 7.8zm-35-21.1l.3-5.6c-4.8-.6-7.4 2.6-8.7 6h-.2c.5-1.9.6-4.2.6-5.6H747v25.7h5.7v-10.4c.1-7.5 2.9-11 7.9-10.1zm-38.9 20.6h18.9v-5h-13v-10.6h12.6v-4.8h-12.6v-9.6h13v-5h-18.9v35zm-26.7.5c7 0 11.3-3.4 11.3-8.4 0-8.5-11.2-6.2-11.2-10.9 0-1.9 1.6-3.1 4.3-3.1 3.3 0 5.1.8 5.1.8l.2-4.8s-2.3-.3-4.8-.3c-7 0-10.7 3.4-10.7 8.1 0 8.7 11 5.7 11 10.9 0 2-2 3.3-4.8 3.3s-5.6-.9-5.6-.9l-.2 5c.1-.2 3.2.3 5.4.3zm-17-12.1v.6c0 3.6-2.5 7-6 7-2.2 0-3.4-1.2-3.4-2.9-.1-2.4 1.6-4.7 9.4-4.7zm.4 11.6h5.6s-.2-2.8-.2-7v-10.5c0-5.4-2.3-8.7-10.2-8.7-5.3 0-9.1 1.6-9.1 1.6l.5 5s3.6-2.2 7.8-2.2c4 0 5.3 1.7 5.3 4.8v1.6c-9 0-15 3.4-15 9.5 0 4 2.8 6.5 7.1 6.5 4 0 7.3-2.2 8.5-5.3h.2c-.5 1.3-.5 3-.5 4.7zm-37.3-30.2c8.4 0 11.8 4.5 11.8 12.7 0 8.7-5 12.6-12.3 12.6-1.9 0-4-.2-4-.2v-25s2.1-.1 4.5-.1zm-1.1 30.4c11.3 0 19.4-6.2 19.4-18.1 0-12.1-6.8-17.2-17.8-17.2-5.7 0-10.9.2-10.9.2v35c0-.1 4.3.1 9.3.1zM583.5 209.8v-42.6l-42.7 15.3v10.6L555 188v32l28.5-10.2zM566.6 150c23.4 0 42.4 19 42.4 42.5S590 235 566.6 235c-23.5 0-42.6-19-42.6-42.5s19.1-42.5 42.6-42.5z"/></g></svg>