<svg width="804" height="224" viewBox="524 150 804 224" xmlns="http://www.w3.org/2000/svg"><g fill="#D4A547" fill-rule="evenodd"><path d="M1033.5 291.9h-8.9v13h8.9c4.3 0 6.9-3.2 6.9-6.5 0-3.4-2.5-6.5-6.9-6.5zM887.9 302.2c-6 0-6.4 5.2-6.4 10.7 0 5.5.4 10.7 6.4 10.7s6.4-5.2 6.4-10.7c0-5.5-.4-10.7-6.4-10.7zM1136.3 206.7c-6.1 0-6.8 4.9-6.8 12.7 0 7.8.7 12.7 6.8 12.7s6.8-4.9 6.8-12.7c0-7.8-.7-12.7-6.8-12.7zM919.8 206.7c-6.1 0-6.8 4.9-6.8 12.7 0 7.8.7 12.7 6.8 12.7s6.8-4.9 6.8-12.7c0-7.8-.7-12.7-6.8-12.7zM1087.8 209.6c-1-2.3-3.2-4.2-7.1-4.2-3.9 0-6.1 1.9-7.1 4.2-.7 1.4-.9 2.9-.9 4.2h16.1c-.1-1.3-.3-2.8-1-4.2z"/><path d="M524 150v223.2h638.4v-95.5h165.3V150H524zm556.6 41.9c15.7 0 24.3 11.4 24.3 25.6v7.3h-32.3c0 4.4 3.4 8.4 9.5 8.4 5.7 0 8.2-1.6 11.1-4.5l9.8 9.8c-5.5 5.5-10.9 8.5-21 8.5-11.9 0-25.7-4.3-25.7-27.6.2-17.6 10.2-27.5 24.3-27.5zm-467.5-17.5h16.5V187h-16.5v-12.6zm0 20.2h16.5v51.9h-16.5v-51.9zm-38.2 147.9c-10.9 0-19.9-2-27.1-9.4l11.2-11.2c3.7 3.7 10.2 5 16 5 6.9 0 10.2-2.3 10.2-6.4 0-1.7-.4-3.1-1.4-4.2-.9-.9-2.4-1.6-4.7-1.9l-8.6-1.2c-6.3-.9-11.1-3-14.3-6.3-3.3-3.4-4.9-8.2-4.9-14.3 0-13 9.8-22.6 26.1-22.6 10.2 0 18 2.4 24.1 8.5l-11 11c-4.5-4.5-10.4-4.2-13.5-4.2-6.1 0-8.6 3.5-8.6 6.6 0 .9.3 2.2 1.4 3.3.9.9 2.4 1.8 4.9 2.1l8.6 1.2c6.4.9 11 2.9 14 5.9 3.8 3.7 5.3 9 5.3 15.7-.1 14.5-12.6 22.4-27.7 22.4zm28-151.8h-31v12.5h26.5v15.7h-26.5v27.6h-17.6V175h48.6v15.7zm36.4 112h-8.5v22.1c0 2.1 1.1 3.3 3.3 3.3h5.2v13.8H631c-11.9 0-16.8-8.5-16.8-16v-23.3h-4.9V290h4.9v-15.5h16.5V290h8.5v12.7h.1zm26.6 39.2h-16.5V290h16.5v51.9zm0-59.5h-16.5v-12.5h16.5v12.5zm1.1-35.9h-8.7c-11.9 0-16.8-8.5-16.8-16V175H658v54.3c0 2.1 1.1 3.3 3.3 3.3h5.7v13.9zm38.6 36.7h-5.7c-2.2 0-3.3 1.2-3.3 3.3v3.5h9v12.6h-9v39.2h-16.5v-39.2h-4.9V290h4.9v-4.7c0-7.4 4.8-16 16.8-16h8.7v13.9zm-6.3-76.5c-2.2 0-6.6 1.2-6.6 7.4v32.3h-16.5v-54h16.1v4.4c3.3-3.3 8.2-5 12.5-5 5.3 0 9.6 1.7 13.1 5.7 4.7-4.1 9-5.7 15.2-5.7 5.1 0 10 1.7 12.9 4.6 4.6 4.6 5.9 9.7 5.9 15.5v34.5h-16.5v-32.2c0-6.2-4.4-7.4-6.6-7.4-2.2 0-6.6 1.2-6.6 7.4v32.3h-16.5v-32.3c.2-6.3-4.2-7.5-6.4-7.5zm41.2 96H732v22.1c0 2.1 1.1 3.3 3.3 3.3h5.2v13.8h-8.2c-11.9 0-16.8-8.5-16.8-16v-23.3h-4.9V290h4.9v-15.5H732V290h8.5v12.7zm55.9 39.2h-16.1v-4.4c-3.3 3.3-8.2 5-12.5 5-5.1 0-9.2-1.7-12.1-4.6-4.6-4.6-5.4-9.7-5.4-15.5v-34.5h16.5v32.3c0 6.2 4.4 7.4 6.6 7.4 2.2 0 6.6-1.2 6.6-7.4v-32.3h16.5v54h-.1zm-9.2-99.5c-4.6-4.6-5.4-9.7-5.4-15.5v-34.4h16.5v32.3c0 6.2 4.4 7.4 6.6 7.4 2.2 0 6.6-1.2 6.6-7.4v-32.3H828v54h-16.1V242c-3.3 3.3-8.2 5-12.5 5-5.2.1-9.3-1.6-12.2-4.6zm67.8 99.5h-16.5v-32.3c0-6.2-4.4-7.4-6.6-7.4-2.2 0-6.6 1.2-6.6 7.4v32.3h-16.5v-54h16.1v4.4c3.3-3.3 8.2-5 12.5-5 5.1 0 9.2 1.7 12.1 4.6 4.6 4.6 5.4 9.7 5.4 15.5v34.5h.1zm1.8-127.7v32.3h-16.5v-54h16.1v4.4c3.3-3.3 8.2-5 12.5-5 5.1 0 9.2 1.7 12.1 4.6 4.6 4.6 5.4 9.7 5.4 15.5v34.5h-16.5v-32.3c0-6.2-4.4-7.4-6.6-7.4-2.1-.1-6.5 1.1-6.5 7.4zM910.7 338c0 12.7-9.6 22-24.4 22-8.4 0-14.7-1.5-20.3-7l10.2-10.2c2.5 2.5 5.5 3.4 9.2 3.4 6.9 0 8.7-4.7 8.7-8.2v-4c-3 3-6.6 4.5-11.6 4.5-5.2 0-9.5-1.7-12.6-4.8-4.9-4.9-5-10.9-5-20.8s.1-15.9 5-20.8c3.1-3.1 7.5-4.8 12.7-4.8 5.5 0 8.7 1.7 12 5v-4.4h16V338h.1zm32.4-91.5h-16V242c-3.3 3.3-6.8 5-12.4 5-5.2 0-10-1.8-13.1-4.9-5.3-5.3-5-14.7-5-22.7 0-7.9-.3-17.4 5-22.7 3.1-3.1 7.8-4.9 13-4.9 5.3 0 9 1.5 12 4.5V175h16.5v71.5zm52.7 95.4H982l-20.6-32.3v32.3h-15.8v-64.2h13.8L980 310v-32.3h15.8v64.2zm.6-129.7v34.2h-17.6V175h17.3l16.1 31.5 16-31.5h17.3v71.4h-17.6v-34.2l-10.1 17.7h-11.2l-10.2-17.7zm44.9 129.7l-11.4-23.9h-5.3v23.9h-15.8v-64.2h25.4c14.2 0 21.9 10.1 21.9 20.6 0 8.7-5.4 14.2-10.5 16.8l13.9 26.8h-18.2zm83.9 0h-12.9l-10.4-31.6-10.4 31.6h-12.8l-17.7-64.2h16.5l8.4 33.9 10.4-33.9h11.2l10.4 33.9 8.4-33.9h16.5l-17.6 64.2zm34.4-95.4h-16V242c-3.3 3.3-6.8 5-12.4 5-5.2 0-10-1.8-13.1-4.9-5.3-5.3-5-14.7-5-22.7 0-7.9-.3-17.4 5-22.7 3.1-3.1 7.8-4.9 13-4.9 5.3 0 9 1.5 12 4.5V175h16.5v71.5zm28.9 0H1172v-51.9h16.5v51.9zm0-59.5H1172v-12.6h16.5V187zm58.5 37.8h-32.3c0 4.4 3.4 8.4 9.5 8.4 5.7 0 8.2-1.6 11.1-4.5l9.8 9.8c-5.5 5.5-10.9 8.5-21 8.5-11.9 0-25.7-4.3-25.7-27.6 0-17.7 10-27.6 24.2-27.6 15.7 0 24.3 11.4 24.3 25.6v7.4h.1zm56.2 21.7h-16.5v-32.3c0-6.2-4.4-7.4-6.6-7.4-2.2 0-6.6 1.2-6.6 7.4v32.3H1257v-54h16.1v4.4c3.3-3.3 8.2-5 12.5-5 5.1 0 9.2 1.7 12.1 4.6 4.6 4.6 5.4 9.7 5.4 15.5v34.5h.1z"/><path d="M1222.7 205.4c-3.9 0-6.1 1.9-7.1 4.2-.7 1.4-.9 2.9-.9 4.2h16.1c0-1.3-.2-2.8-.9-4.2-1.1-2.3-3.3-4.2-7.2-4.2z"/></g></svg>