<svg width="356" height="218" viewBox="524 150 356 218" xmlns="http://www.w3.org/2000/svg"><path d="M769.6 364.3c2.9 1.5 8.9 3.3 16.3 3.5 12.8.3 19.8-4.6 25-16.2L879.8 198c-2.8-1.5-9.2-3.2-14.3-3.3-8.9-.2-20.8 1.6-28.3 19.7L814.9 267l-43.7-71.2c-2.8-.9-9.7-2.1-14.7-2.1-15.5 0-24.1 5.7-33.1 15.4l-42.5 46.5 34.2 53.8c6.3 9.8 14.6 14.8 28.2 14.8 8.9 0 16.2-2.1 19.6-3.7l-41.2-62.1 29.2-31 47.9 75.2-29.2 61.7zm-90.3-58.1c0 11.3-4.4 17.9-26.5 17.9-2.9 0-5.5-.2-7.9-.6V173.3c0-11.4 3.9-23.3 26.2-23.3 2.8 0 5.7.3 8.3.9v155.3h-.1zm-45.6-22.6c0 21.2-13.8 36.6-41.8 39.6-20.3 2.2-49.7-.4-63.7-2-.5-2.3-.8-5.1-.8-7.4 0-18.4 9.9-22.7 19.3-22.7 9.7 0 25 1.7 36.4 1.7 12.6 0 16.3-4.2 16.3-8.3 0-5.3-5-7.5-14.7-9.4l-26.6-5.1c-22.3-4.2-34.1-19.5-34.1-35.7 0-19.8 14-36.3 41.5-39.3 20.8-2.3 46.1.3 60 2 .5 2.4.8 4.6.8 7.1 0 18.4-9.7 22.4-19.1 22.4-7.2 0-18.3-1.3-31.1-1.3-12.9 0-18.3 3.6-18.3 7.9 0 4.6 5.1 6.5 13.2 7.9l25.4 4.7c26 4.8 37.3 19.6 37.3 37.9z" fill="#D4A547" fill-rule="evenodd"/></svg>