<svg width="411" height="116" viewBox="524 149 411 116" xmlns="http://www.w3.org/2000/svg"><g fill="#D4A547" fill-rule="evenodd"><path d="M560.5 150.5l-4.7.2c-2 .1-4.1.3-6 .2-1.2 0-1.7.2-2.3.5-.7.3-1.4.7-3.1.6-2.9-.7-7.3-1.4-8.3-.4-.9 1-1.1 1.5-1.4 2.1l-.5 1.3c-.1 0-.6.5-.6.5-.5.4-.7.6-.8 1.2V160.1c0 1 .1 1.9.4 2.3 1.7 2.4 5.8 2.6 12.4.8l.9-.3c.6-.2.8-.2 1.3.3l1.1.8v.2c.1 1.7.9 2.2 1.9 2.9.7.5 1.5 1 2.1 2l1.8 3.5c.9 1.9 1.7 3.7 3 5.3 1.7 2 5.3 4.8 8.1 4 .3-.1.5-.2.7-.3.3-.2.5-.4.6-.6.6-1.2-.1-3.5-.9-5.9l-.7-2.3c-.4-1.5-1.7-4.8-1.8-5.2l-1.4-3.4-1.4-3.6.6-.1c1.3-.3 3 .2 4.5.7 3 .9 4.9 1.3 5.8-.9v-.2c1.7-2.1 1.6-3.3 1-6.1-.5-2.8-.5-2.8-3.5-2.9l-3.5-.3c-1.7-.1-3.2-.3-5.3-.3z"/><path d="M609.8 150.1c2.3-.2 4.2-.3 7 .5.9.2 2.2.7 3 1.8l1 1.5c.9 1.2 1.8 2.5 1.8 3.7 0 .4-.1.8-.3 1.2-.3.4-.7.7-1.3 1.1 0 0-1 .6-1.2.7-1.3.4-2.2.4-3.2.4h-.8l-2.9.1c-1.2 0-4 .5-5.3.9-1 .3-3.8 5.6-4 6.6-.2.9-.5 1.8-.9 2.7l-.7 2c-.1.8-2 2.5-3.4 3.8-1.8 1.6-3.5 3.1-3.8 4.2-.3 1-1.6 3-2.9 4.9-1.6 2.4-3.2 4.7-3.4 5.9-.2 1.6-.9 3.1-1.5 4.6-.5 1.2-1 2.4-1.3 3.6l-.7.6-.6.7c-.1.3-.2.6-.2.8 0 .6.4 1 .7 1.2l.4.5c1.3 1.9 2.4 4.3 3.5 7.5.3.9 1.8 3.1 3.8 6.2 3.3 5.1 7.9 12 8.8 15.8.4 1.5 1.8 2.3 3.2 3 1.3.7 2.5 1.3 2.6 2.4V240.2c0 .8.1 1.7.9 2.2 1.6 1.1 3.2 2.5 4.4 3.9.5.7 3.4 3.9 5.1 3.4l2.4-.9 1.3-.6c2.4-.9 2.4-.9 4.1 1.8l.2.3c.4.9 1.8 1.1 3.1 1.3 1.4.2 2.9.5 3.1 1.4.3 1.4-1.1 7.2-1.9 7.6-3.7 1.8-5.9 2.3-9.9 2.3-.5 0-3.2-1.7-3.6-2.1l-.2-.2-.3.1c-1.9.9-6.9 2.2-9.2 2.2-1.2 0-2.6-.3-4.1-.5-3.5-.7-7.8-1.5-12.2.4-2 .8-3.1-1.5-4.1-3.9l-.3-.8c-.3-.6-.7-.9-1-1.2-.4-.3-.7-.6-.8-1.3-.1-.8 1.5-3.6 2-4.5l.3-.6c1.1-2 5.3-1.8 6.6-1.7 2 .1 2.2-.9 2.5-2.3l.3-1.4-.3-.2c-.7-.4-.8-.6-1.1-1.4-.2-.4-.2-.8 0-1 .2-.4.7-.7 1.5-.8l.8-.2-1.7-2.4c-2.5-3.5-9.3-12.7-10-15.7-.3-1.9-1.3-3.4-2.2-5l-.7-1.1-.4-.8c-.8-1.5-1.6-3.1-2.8-3.3-.6-.1-1.1.1-1.6.6l-.9.8c-1.3 1-2.9 2.3-2.8 3.6.2 2.3-.4 2.7-1.8 3.7l-1.7 1.3c-3.1 2.7-4.4 5.5-4.4 9.7 0 1.5-.8 2.7-1.5 3.9-.5.7-.9 1.4-1.3 2.2-.4.9-.5 1.8-.6 2.6-.1.8-.2 1.5-.5 2.3-.2.6-.9 1.2-1.6 1.9-.6.6-1.3 1.2-1.7 1.9-.1.4-.4 1.2.1 1.8.7.8 2.1.4 4-.1 1.8-.5 3.8-1 5-.5 2.2.8 2.2 1.3 2.6 3.5l.2 1.1c0 .1.2.6.2.6.5 1.2 1.5 3.9.5 4.4-.7.4-1 1.4-1.3 2.5-.3 1-.6 2-1.1 2.1-2.7.2-5.5-.7-7.5-1.2-1.3-.4-2.3-.7-2.9-.6-3.1.3-4.4.7-5.6 1-1.3.4-2.4.7-6 .8h-.7c-1.8 0-3 .1-4.9-.3-.3-.1-.7-.4-1.1-.7-.8-.6-1.9-1.4-2.9-.8-1.7 1-5 2-7.1 1.8-2.6-.3-5.5-5.2-5.8-7.9 0-.3-.1-1 .3-1.1 1.1-.3 1.3-1.2 1.4-2l.2-.6c.4-.6 5.8-3.3 8.6-2l.6.3c.7.5 1.3.7 3.4-.4.6-.3 1.5-.2 2.4-.1l1.5.1.1-.2c.4-.4.6-.9.9-1.4.2-.5.5-1 .8-1.3 1.2-1.3 2-3.4 2.7-5.3 1.1-3.1 2.1-6 4.9-6.6.2-.1.6-.2.6-.2 1.1-.4 2.3-.9 3.3-1.6l.2-.2v-3.2c0-.9.1-1.7.4-2.6.2-.6.8-1.2 1.3-1.7l.5-.5-.4-.1c1.1-.7 1.7-1.6 2.2-2.6 1.8-3.4 8.8-16 11.2-18.9l.2-.3-.2-.3c-.5-.9-.7-2.2-1-3.5-.4-2.1-.8-4.3-2.6-5.2-2.3-1-2.1-2.6-1.8-5l.2-2.1c.1-1.6 1.1-3 2.5-3.4 1.2-.3 2.4.1 3.3 1.2l.9 1.4c.8 1.3 1.7 2.8 3 3.3.1.1.6.6.8.9.7.9 1.1 1.5 1.7 1.1 1.1-.9 2.1-1.5 2.9-1.8 1.5-.5 2.4-1.8 2.4-3.3 0-.7 1.2-2.7 2.3-4.5 2-3.4 3.3-5.7 3.1-7-.1-.7 1.1-2.5 1.9-3.7l1.1-1.8c.3-.7.9-1.3 1.5-1.9 1-1.1 2.1-2.2 1.7-4.2-.4-1.1-1.9-1.1-3.3-1.1-.8 0-1.8 0-2.2-.2-.6-.5-.8-.8-.9-1.1-.4-.7-.7-.8-2.3-.8-2.3 0-4-1.5-4-2.3.1-6.4 2.4-7 4.6-7 1.4 0 3.1.3 4.7.7 2 .4 4 .8 5.7.7v-.5c.2 0 .5.1.5.1.1-.7.9-.7 2.6-.5l1.1.1c.9 0 1.6-.2 2.2-.3.6-.2 1.2-.3 2.1-.3l3.7-.3zM898 151.2c-1.3.1-2.8.6-4.3 1.1-1.2.4-2.4.8-3.3.9-.9.1-2.1-.1-3.3-.4-1.1-.2-2.3-.5-3-.4-3 .6-4.5 5.2-4.6 13.9 0 .7.9 2.6 1.7 4.3.9 2 1.8 3.8 1.8 4.8 0 .6-.5 2.3-1.4 5.4-1.3 4.4-3.2 10.9-3.2 14v.7c.1.7 1 1.5 1.8 2.3.9.9 1.9 1.8 2.1 2.7v.2l-.1.2c-.3.5-.8.6-1.4.8-1.2.3-2.7.8-3.8 3.9-1 3.1-1.6 6.5-1.6 10.1v.8c.1 6 1.4 11.9 2.6 17.7 0 0 .7 3.2.7 3.5 2.8 2.8 5.7 2 9.4.8l1.3-.4c3.6-1 6-.2 8.6.8 1.2.5 2.5.9 4.1 1.2 4.3.8 8.6 0 12.7-.8 5.8-1.1 11.7-2.2 17.5 1 1.2-.8 1.6-2 1.6-3.6 0-1-.2-2.2-.3-3.4-.2-1.3-.4-2.7-.4-4.1 0-1.6.3-3.1 1.1-4.5-.1-1.4-.6-2.4-1.5-3.1-2.5-2-8.2-1-14.7.1-7.1 1.2-15.2 2.5-22.2.7h-.1l-.1-.1c-3.9-4.2-4.4-8.5-4.8-12.7-.2-2.1-.4-4.2-1.1-6.3l-.2-.6.6-.1c.8-.1 1.6-.6 2.5-1.1.9-.5 1.8-1 2.8-1.2 2.5-.4 3.9.1 5.8.6l2.4.7c7.6 1.7 17.5.9 19.4.7.6-2.2 1.4-6.1 1.4-9.4 0-2.7-.5-4.9-2.2-5.5-3.5-1.1-4.7-.9-7.6-.4-.3.1-1 .8-1.5 1.4-.8.9-1.5 1.7-2.2 1.8-.4.1-1.2-.2-3.1-.9-1-.3-2.4-.9-2.7-.9l-1.1.2c-4.3.7-9.1 1.4-11.9-3.5-1.4-2.6-.9-5.4-.4-8.2.5-2.5.9-4.9-.1-7.1l-.1-.2.1-.2c1-2.6 6.1-4.8 10.5-6.4l1.1-.4.2.2c1.5 1.2 3.3 2.2 5.3 2.9 6.7 2.3 12.1 1.6 19 .8h.1c.2-.1 1.1-.8 1.1-.8 2.6-1.8 5.4-3.8 5.4-6.9 0-.7-.2-1.5-.5-2.3-7.6-4.2-20.7-6.2-35.9-5.3z"/><path d="M646 152.6c-3.6.6-7.4 1.2-11 1.6-5.1 3-6 9.8-6 16.2 0 1.9.1 3.8.2 5.5l.1 1.6c.2 5.7 1 11.7 1.7 17.6l.9 7.6c.1.8.1 1.6.1 2.4 0 3.7-.8 7.3-1.6 10.8-.8 3.5-1.6 7-1.6 10.6 0 .8 0 1.7.1 2.5.6 4.5 2.1 7.2 5.5 9.7 3.7 2.7 7.6 2 11.6 1.3 1.3-.2 2.6-.4 4-.5 0-.7.8-10.9.8-10.9l.3-5c0-.9-1.7-3.3-2.8-4.8l-1.6-2.4c-1.7-3.3-2.5-6-2.5-8.2 0-1.1.2-2 .6-2.8.9-1.6 2.6-2.6 5.2-2.9 4.7-.6 17-1.6 19.3-1.5 1.4-.1 2.2 1.2 2.5 1.8 7-.6 10.1-2.2 10.6-10.4-3.8-7.1-6.4-6.5-12.6-5.1l-1.7.4c-1.7.4-4.9 1-6.8 1.1-.5.1-1.4-.2-2.3-.4-.6-.2-1.3-.4-1.6-.4-2.7.2-5.1-.1-7.1-1-4.3-1.2-6.3-6.6-5.6-16.3v-.3l.3-.1c6.5-2.7 12.9-2.1 19.2-1.6 5.7.5 11.7 1 17.9-.9 1.6-1.4 1.9-3.2 1.9-5.2v-2.7c0-1.6.2-3.2 1-4.7-.4-.4-2.7-2.7-2.8-2.9-11.9-3.6-24.3-1.6-36.2.3zM690.4 234.4c-.2-.6-.3-1.1-.3-1.6 0-1.7 1.1-3 2.2-4.4.8-1 2.7-2 3.1-3.2l.1-.4s-3.8-2.1-4.2-2.4c-.8-5.2-1.1-10.4-1.1-15.6 0-8.4.8-16.7 1.6-24.9l.2-2.1s1.8-6.5 1.9-8.2c2.5-.6 4.4-3.5 4.7-6.2v-.6c0-1.9-.9-3.6-1.7-5.2-.8-1.7-1.6-3.2-1.6-4.9v-.6c1-1.9 2.1-3 3.2-3.3 1.4-.4 2.9.3 4.7 1.1 1.7.8 2.8 1.7 5 1.7.2.7 1.4 4.5 1.4 4.5 1.5 4.6 3.1 9.4 3.8 14.3.3 1.8.4 3.6.4 5.3 0 1.4-.1 2.8-.2 4.2-.2 1.7-.8 3.3-1.4 5.1-.6 1.8-.4 3.6-.7 5.5-.2 1.5-.2 3-.2 4.5 0 5.5 1 10.9 2 16.1 1 5.2 1.1 10.6 1.1 16.1v2.4c0 5-2.8 8.6-7.5 9.8-5 1.1-12.5-.8-16.5-7zM733.6 151.1c-7.5 3.3-9.4 7-9.4 11.3 0 2.1.5 4.3 1 6.8.6 2.7 1.2 5.6 1.2 8.6 0 .6 0 1.2-.1 1.9.6 2.1.8 4.4.8 6.9 0 3.5-.4 7.3-.9 11.2-.4 3.9-.9 7.9-.9 11.7 0 5.9 1.1 11.2 5 14.9l.1.1v.1c.2.7.4 1.2.4 1.6 0 .3-.1.5-.2.7-.3.6-.9.6-1.5.7-.5.1-1 .2-1.5.4-.6.3-.9 1.9-1.2 2.9l-.3 1.3c-.3.8-.4 1.5-.4 2.1 0 1 .4 1.8 1.2 2.5 7.3-5.3 10.8-2.3 14.1.6 2.7 2.3 5.3 4.5 10 2.5.1-.4 1.1-2.6 1.1-2.6v-.1c.3-.3.8-.6 1.7-.5 1.8.3 4.4 2.1 5.4 3.7l1-.5c1.6-.8 3.5-1.8 5-1.2.7.3 1.3.9 1.7 1.9.2 0 .4-.1.4-.1 1.8-.4 3.6-.8 5.2-2.3.1-.3.4-1.5.4-1.5.4-2.1.7-5.2.7-7.5 0-1.6-.2-2.8-.6-3.2-2.1-2.1-5.8-1.8-10.1-1.4-7 .6-15.7 1.4-19.5-9.8l-.1-.2.1-.2c.8-2.2.9-4.5 1.1-6.7.3-3.9.6-7.5 3.8-10-.7-.7-5.4-4.9-5.4-4.9s1.6-1.5 2.1-2c-1.5-2.1-2.5-2-3.8-1.7-1.2.2-2.7.5-4.7-.8l-.1-.1-.1-.1c-2.2-4.7-.9-6.6.3-8.5 1-1.5 1.9-2.8 1.2-5.7l-.1-.4.4-.2c2.1-1 3.7-1.2 4.9-.7 1.4.6 2 2.1 2.6 3.7 2.1-4 3.1-8.1 3.1-12.3 0-1.2-.1-2.5-.3-3.8-3.2-.5-5.1-2.7-7-4.9-2-2.8-4-5.1-7.8-4.2zM861.1 189.9c-.4.4-1 .9-2.2 1.4-3.8 4.4-8.1 13.3-8.5 20l-.2 4c0 .3.8.9 1.3 1.4.9.8 2 1.6 2.2 2.6.1.5.2 1 .2 1.6 0 2.2-1 4.5-2 6.8s-2 4.6-2 6.6c0 .4.1.8.1 1.2 7.3 7.3 14.1 4.5 18.5.8.9-1.5 1.3-2.8 1.3-4.1 0-2-.9-3.9-1.7-5.8-.9-2.1-1.9-4.2-1.9-6.6 0-.7.1-1.4.3-2.2v-.3c0-1.2-1.1-4.2-2-6.7-.9-2.5-1.8-4.8-1.8-6v-.8c0-1.7.3-3.7.6-5.7.3-1.9.6-3.8.6-5.4 0-1.6-.3-2.7-1.3-3.1-.9-.3-1.1-.2-1.5.3z"/><path d="M788.7 154.4c-.4 1.6-1 3.3-1.6 5-1.1 3.1-2.2 6.2-2.2 9.4 0 1.1.1 2.1.4 3.2.4 1.4 1.1 2.8 2 4.1 0 0 .6 2.1.7 2.3.2.3.5.7.5 1.1v.2l-.5.8-.3.6c-.2.7-.7 1.2-1.2 1.5-.4.3-.8.6-.8 1-.3 1.8-.4 3.8-.5 6.2l-.2 5.5c-.3 9.9-.6 20.2-5.7 29.1 4.7 2.6 9.8 7.8 9.8 13.4 0 1.1-.2 2.1-.7 3.2 1.5.3 2.7.2 3.7-.5 2.6-1.8 3.1-7 3.7-12.6.3-2.7.6-5.5 1.1-8.1.1-.7.6-1.7 1-2.8.4-1 .8-1.9.9-2.5v-2.1c.2-.8.6-1.4.9-1.9.3-.5.6-.9.7-1.4.4-1.6-.1-4-.4-6.3-.6-3.2-1.1-6.3.2-7.9.5-.6 1.3-1 2.3-1 3.6-.1 4.4 3.7 5.5 8.5.5 2.2 1 4.6 1.8 7 .1.3.6.6 1.1.8.7.3 1.4.6 1.7 1.4l1.3 5-.3.2c-.2.1-.5.8-.7 1.9-.2 2.4.7 6.1 3.8 9.1 1.6 1.5 2.3 3.6 2.9 5.6.7 2.4 1.4 4.7 3.7 6 .7.4 5.9.7 6.9-.8 6-12.9 9.1-23.5 10-33.4l.6-7.6v-.5c-.4-.5-.6-1-.6-1.5 0-.9.5-1.9 1-2.7l.6-1.2c0-.1 4.4-10 6.3-10.1.3 0 .6.1.7.4.6 1.7 1.6 2.6 3.1 2.9l1-.3c.8-.3 1.2-.4 1.6-.3.9.3 2 1.8 2.3 2.8.7 1.1 2.5.6 2.5.6h.2c1.6 0 3.2-1.2 4-2.4.4-.6.4-1 .3-1.2v-.2c0-.5-.3-.8-.6-1.2-.4-.5-.8-1-.8-1.8.2-1.3-.1-2.7-.5-4.1-.3-1-.5-2.1-.6-3.2-.2-2.8-1.1-12.3-7-15.3h-.1c-1.9-1.7-4.1-2.4-6.3-2-2.6.5-5 2.5-6.6 5.3v1.2c0 7.4-4.3 15-8.5 22.4-3.2 5.6-6.5 11.5-7.7 17l-.1.5-.5-.2c-5.8-1.8-6.8-7-7.8-12-.5-2.4-.9-4.8-1.9-6.9l-.8-1.3c-.5-.8-1-1.6-1-2.6 0-.3.1-.6.2-1 .3-.8.4-1.6.4-2.5 0-1.3-.3-2.7-.8-4.3-.5-1.7-1.2-3.4-1.9-5-1.2-2.9-2.5-5.8-2.8-9-1.5-3.8-5.1-6.5-9.5-7.1-4-.4-7.8.9-9.9 3.6zM656.4 254.2v2.4c0 4.6.4 7.9 5.6 7.9 4.1 0 4.7-3.2 4.8-5.5v-.4l.1-.8h-3.5v.7c0 1.6-.2 3.1-1.3 3.1-1.8 0-2-1.7-2-3.4V253.3c0-.9 0-2.5.7-3.2.3-.3.7-.5 1.3-.5 1 0 1.2 1 1.3 2.3l.1.7h3.5l-.1-1.5c-.2-2.9-1.8-4.4-4.7-4.5-5.6.1-5.7 3.9-5.8 7.6zM680.3 247.1v17h3.5V257h.6c.8 0 1.6 0 2.4.2.9.3.9 1.4.9 2.4v.8c0 1.1 0 2.7.3 3.6v.1h3.8v-.6l-.1-.1c-.2-.1-.6-.8-.6-4.5v-.6c0-1.7-.7-2.7-2-3 1.4-.5 2.1-1.8 2.1-4 0-2.8-1.7-4.2-4.9-4.2h-6zm5.6 2.8c1.2 0 1.7.3 1.7 2 0 1.4-.6 2.1-1.6 2.2h-2.2v-4.2h2.1zM705.2 247.1v17h9.6v-2.8h-6.1v-4.7h5.2v-2.8h-5.2V250h5.6v-2.8h-9.1v-.1zM730.4 247.1l-4.1 17h3.8s.8-3.9.8-4.2h3.3c.1.3.8 4.2.8 4.2h3.7l-3.8-17h-4.5zm2.2 1.7c0 .3.9 7.3 1 8.2h-2.2c.2-.4 1.2-7.9 1.2-8.2zM749.1 247.1v2.8h3.6v14.2h3.5v-14.2h3.6v-2.8h-10.7zM772.7 247.1h3.5v17h-3.5zM797.3 247.1l-1.8 10.8s-.2 1.7-.3 2.5c-.1-.8-.3-2.5-.3-2.5l-2-10.8h-3.7l3.8 17h4.5l3.7-17h-3.9zM813.9 247.1v17h9.9v-2.8h-6.4v-4.7h5.2v-2.8h-5.2V250h5.6v-2.8h-9.1v-.1zM851.8 247.1v17h3.5v-6.9h1.9c1 0 2.5-.1 3.6-1 1.4-1.1 1.6-3.1 1.6-4.1 0-1.5-.4-4.9-4.1-4.9h-6.5v-.1zm4.7 2.8c1.7 0 2.3.3 2.3 2 0 2.1-1 2.4-2 2.4h-1.5v-4.4h1.2zM875.4 254.2v2.4c0 4.6.4 7.9 5.6 7.9 5.2 0 5.6-3.3 5.6-7.9v-2.4c-.1-3.7-.2-7.6-5.6-7.6-5.4.1-5.5 3.9-5.6 7.6zm3.6 4V253.3c0-.9 0-2.5.7-3.2.3-.3.7-.5 1.3-.5.5 0 .9.2 1.2.5.8.8.8 2.6.8 3.5v4.4c0 1.9-.2 3.7-2 3.7-1.8-.1-2-1.8-2-3.5zM900.3 254.2v2.4c0 4.6.4 7.9 5.6 7.9 5.2 0 5.6-3.3 5.6-7.9v-2.4c-.1-3.7-.2-7.6-5.6-7.6-5.4.1-5.5 3.9-5.6 7.6zm3.6 4V253.3c0-.9 0-2.5.7-3.2.3-.3.7-.5 1.3-.5.5 0 .9.2 1.2.5.8.8.8 2.6.8 3.5v4.4c0 1.9-.2 3.7-2 3.7-1.8-.1-2-1.8-2-3.5zM925.4 247.1v17h9.3v-2.8h-5.8v-14.2h-3.5z"/></g></svg>