<?xml version="1.0" encoding="utf-8"?>
<!-- Generator: Adobe Illustrator 17.0.0, SVG Export Plug-In . SVG Version: 6.00 Build 0)  -->
<!DOCTYPE svg PUBLIC "-//W3C//DTD SVG 1.1//EN" "http://www.w3.org/Graphics/SVG/1.1/DTD/svg11.dtd">
<svg version="1.1" id="Layer_1" xmlns="http://www.w3.org/2000/svg"  x="0px" y="0px"
	 width="960px" height="464.415px" viewBox="0 0 960 464.415" enable-background="new 0 0 960 464.415" xml:space="preserve">
<g>
	<path fill="#DD6620" d="M148.767,320.924v82.624c0,3.306-2.898,5.133-8.64,5.541v3.556h62.861v-3.556
		c-5.641-0.407-8.488-2.235-8.488-5.541v-82.624c0-17.177-3.659-31.1-10.924-41.824c-7.318-10.721-17.175-18.394-29.677-23.068
		c-12.5-4.678-26.983-7.014-43.497-7.014c-16.566,0-31.1,2.336-43.6,7.014c-12.5,4.674-22.36,12.347-29.677,23.068
		c-7.266,10.724-10.925,24.647-10.925,41.824v39.214h45.736v-39.214c0-11.384,3.251-19.769,9.805-25.155
		c6.557-5.338,16.11-8.032,28.61-8.032C135.96,287.737,148.767,298.819,148.767,320.924L148.767,320.924z"/>
	<path fill-rule="evenodd" clip-rule="evenodd" fill="#3C544A" d="M71.391,123.168l35.492,6.383
		C106.884,129.552,78.627,154.595,71.391,123.168L71.391,123.168z"/>
	<path fill-rule="evenodd" clip-rule="evenodd" fill="#3C544A" d="M163.228,123.168l-35.489,6.383
		C127.739,129.552,155.992,154.595,163.228,123.168L163.228,123.168z"/>
	<path fill="#DD6620" d="M87.433,101.695h52.574h30.049h9.097V55.959h-9.097h-13.882H87.433c-17.175,0-31.101,3.656-41.821,10.924
		c-10.724,7.317-18.397,17.177-23.071,29.675c-4.677,12.502-7.013,26.985-7.013,43.5c0,16.566,2.336,31.1,7.013,43.6
		c4.674,12.5,12.348,22.36,23.071,29.677c10.721,7.266,24.646,10.925,41.821,10.925h76.469h6.155h9.097v-45.735h-9.097h-32.86
		H87.433c-11.384,0-19.769-3.251-25.155-9.805c-5.337-6.557-8.029-16.11-8.029-28.61C54.249,114.498,65.329,101.695,87.433,101.695
		L87.433,101.695z"/>
	<path fill="#3C544A" d="M267.201,98.848c12.375,0,24.109,2.293,35.251,6.826c11.136,4.585,20.304,11.552,27.412,20.95
		c7.105,9.395,10.677,21.04,10.677,34.93c0,13.796-3.572,25.44-10.726,34.928c-7.195,9.487-16.408,16.457-27.686,20.993
		c-11.275,4.539-22.92,6.785-34.928,6.785c-11.916,0-23.56-2.293-34.927-6.828c-11.373-4.582-20.63-11.598-27.825-21.043
		c-7.155-9.441-10.729-21.039-10.729-34.835c0-13.89,3.528-25.535,10.637-34.93c7.059-9.398,16.223-16.365,27.501-20.95
		C243.136,101.14,254.916,98.848,267.201,98.848L267.201,98.848z M267.201,128.275c-7.062,0-13.477,1.375-19.206,4.075
		c-5.729,2.756-10.221,6.651-13.568,11.742c-3.303,5.038-4.952,10.859-4.952,17.419c0,10.129,3.623,18.195,10.865,24.245
		c7.241,6.055,16.224,9.078,26.86,9.078c7.06,0,13.426-1.374,19.114-4.077c5.685-2.755,10.177-6.652,13.524-11.648
		c3.297-5.041,4.949-10.908,4.949-17.598c0-5.044-0.961-9.629-2.887-13.801c-1.923-4.169-4.585-7.7-7.929-10.544
		c-3.346-2.884-7.383-5.087-12.055-6.601C277.194,129.052,272.289,128.275,267.201,128.275L267.201,128.275z M375.292,214.451
		V108.792v-0.136v-8.067h75.268c12.967,0,23.739,2.751,32.269,8.203c8.523,5.454,14.805,12.79,18.839,22.004
		c4.03,9.213,6.049,19.481,6.049,30.758c0,11.185-2.018,21.452-6.049,30.758c-4.034,9.305-10.316,16.685-18.839,22.139
		c-8.529,5.457-19.302,8.206-32.269,8.206h-75.268v-8.073V214.451L375.292,214.451z M412.097,127.308v68.625h19.711
		c7.383,0,13.478-0.598,18.337-1.79c4.909-1.236,8.937-3.205,12.237-5.908c3.259-2.755,5.685-6.237,7.247-10.547
		c1.556-4.261,2.333-9.626,2.333-16.091c0-12.378-3.118-21.221-9.393-26.45c-6.283-5.223-16.501-7.839-30.761-7.839H412.097
		L412.097,127.308z M546.774,100.589h36.81v8.116v105.746v0.158v8.048h-36.81v-8.048v-0.082v-0.076V108.792v-0.087v-0.082V100.589
		L546.774,100.589z M887.218,156.053h10.479h46.775v15.689v22.311v0.084v0.084v14.257c-2.334,1.089-4.794,2.146-7.375,3.175
		c-5.638,2.2-11.921,4.311-18.796,6.283c-6.924,1.972-13.798,3.528-20.63,4.628c-6.831,1.144-13.611,1.695-20.35,1.695
		c-14.488,0-27.187-2.246-38.095-6.785c-10.862-4.536-19.299-11.46-25.35-20.806c-6.049-9.352-9.075-21.045-9.075-35.115
		c0-10.452,1.972-19.712,5.957-27.735c3.99-8.018,9.305-14.575,15.996-19.665c6.652-5.088,14.396-8.939,23.153-11.506
		c8.803-2.521,17.921-3.8,27.414-3.8c11.642,0,23.098,1.375,34.376,4.169c2.341,0.549,5.546,1.375,9.721,2.475l3.393,0.893
		l9.577,3.303l-10.044,25.589c-8.526-2.605-17.952-6.397-26.445-8.152c-5.772-1.238-10.767-1.831-15.077-1.831
		c-12.609,0-22.74,2.931-30.349,8.847c-7.61,5.913-11.41,15.037-11.41,27.412c0,12.606,3.895,22.047,11.734,28.33
		c7.836,6.277,18.15,9.393,30.94,9.393c9.857,0,18.701-1.375,26.586-4.169v-18.104h-11.552h-11.555h-0.152h-8.004v-20.95h8.004
		H887.218L887.218,156.053z"/>
	<path fill="#3C544A" d="M730.54,151.116v65.892c0,2.632-2.311,4.093-6.891,4.419v2.833h50.128v-2.833
		c-4.501-0.326-6.769-1.787-6.769-4.419v-65.892c0-13.701-2.917-24.799-8.708-33.349c-5.84-8.551-13.701-14.67-23.669-18.397
		c-9.966-3.729-21.52-5.593-34.689-5.593c-13.211,0-24.802,1.863-34.767,5.593c-9.969,3.727-17.835,9.846-23.672,18.397
		c-5.794,8.55-8.711,19.649-8.711,33.349v30.234h36.473v-30.234c0-9.075,2.594-15.762,7.823-20.059
		c5.226-4.254,12.845-6.402,22.816-6.402C720.325,124.654,730.54,133.488,730.54,151.116L730.54,151.116z"/>
	<polygon fill="#3C544A" points="226.722,249.018 262.508,249.018 262.508,256.83 262.508,256.911 262.508,256.993 262.508,359.719
		262.508,359.792 262.508,359.871 262.508,367.697 226.722,367.697 226.722,359.871 226.722,359.792 226.722,359.719
		226.722,256.993 226.722,256.911 226.722,256.83 226.722,249.018 	"/>
	<path fill="#3C544A" d="M402.335,298.143v64.061c0,2.559-2.244,3.979-6.696,4.297v2.755h48.736v-2.755
		c-4.378-0.318-6.584-1.738-6.584-4.297v-64.061c0-13.32-2.836-24.111-8.466-32.425c-5.677-8.312-13.32-14.26-23.012-17.887
		c-9.691-3.623-20.923-5.435-33.727-5.435c-12.842,0-24.109,1.812-33.8,5.435c-9.691,3.627-17.34,9.575-23.017,17.887
		c-5.631,8.314-8.467,19.105-8.467,32.425v25.652v3.743h35.46v-8.988v-20.407c0-8.824,2.526-15.327,7.608-19.505
		c5.079-4.137,12.486-6.223,22.18-6.223C392.404,272.415,402.335,281.004,402.335,298.143L402.335,298.143z"/>
	<path fill="#3C544A" d="M489.171,361.245l8.152-27.393c11.728,4.862,15.969,7.861,29.951,7.861c6.552,0,11.308-1.187,14.352-3.477
		c3.053-2.295,4.59-6.503,4.59-12.565v-51.328v-17.351v-0.133v-7.842h35.786v7.847v0.128v9.862v62.068
		c0,7.839-1.26,14.309-3.786,19.432c-2.548,5.166-6.063,9.232-10.653,12.301c-4.544,3.034-10.026,5.24-16.354,6.598
		c-6.367,1.355-13.641,2.002-21.844,2.002C515.263,369.256,502.519,365.078,489.171,361.245L489.171,361.245z"/>
	<path fill="#3C544A" d="M676.703,324.112h44.393l-22.463-53.012L676.703,324.112L676.703,324.112z M775.906,367.697h-35.017
		l-10.661-24.02h-62.036l-10.223,24.02h-31.168c16.84-39.82,34.482-79.144,52.001-118.679h43.274
		C739.384,288.919,757.738,328.176,775.906,367.697L775.906,367.697z"/>
	<path fill="#3C544A" d="M820.701,357.171l8.298-23.58c8.624,2.643,21.159,7.328,33.38,9.371c8.157,1.364,15.865,2.002,23.087,2.002
		c5.658,0,11.096-0.802,16.355-2.361c5.261-1.556,7.888-4.587,7.888-9.137c0-4.498-5.345-7.711-16.039-9.536
		c-10.696-1.828-21.355-3.52-31.956-5.079c-10.561-1.554-19.806-4.612-27.632-9.181c-7.812-4.564-11.72-11.943-11.72-22.148
		c0-6.149,2.053-12.343,6.146-18.543c4.061-6.144,10.612-11.318,19.614-15.46c9.002-4.145,20.187-6.193,33.602-6.193
		c6.057,0,11.81,0.334,17.201,0.932c5.389,0.597,9.941,1.257,13.595,1.961c10.216,1.986,18.774,4.208,28.816,6.91l-11.799,25.049
		l-10.091-4.134l-0.25-0.106l-0.253-0.103l-0.06-0.024c-1.79-0.742-4.014-1.535-6.676-2.366c-8.198-2.546-16.4-3.83-24.693-3.83
		c-20.274,0-30.391,4.007-30.391,11.987c0,4.099,4.813,6.954,14.485,8.559c9.661,1.602,20.322,3.246,31.953,4.987
		c11.584,1.733,21.33,5.019,29.144,9.805c7.826,4.792,11.767,12.481,11.767,23.041c0,11.232-4.957,20.586-14.798,28.028
		C906.353,375.665,843.631,368.587,820.701,357.171L820.701,357.171z"/>
</g>
</svg>
